<?xml version="1.0" standalone="no"?>
<!DOCTYPE svg PUBLIC "-//W3C//DTD SVG 1.1//EN" "http://www.w3.org/Graphics/SVG/1.1/DTD/svg11.dtd" >
<svg xmlns="http://www.w3.org/2000/svg">
<metadata>Generated by IcoMoon</metadata>
<defs>
<font id="icomoon" horiz-adv-x="1024">
<font-face units-per-em="1024" ascent="960" descent="-64" />
<missing-glyph horiz-adv-x="1024" />
<glyph unicode="&#x20;" horiz-adv-x="512" d="" />
<glyph unicode="&#xe900;" glyph-name="print" d="M789.376 362.624h-21.376v42.624h21.376c30.976 0 51.456 0 57.728 6.272s6.272 26.752 6.272 57.728v42.752c0 74.496 0 111.872-18.688 130.56s-56.064 18.688-130.56 18.688h-384.128c-74.496 0-111.872 0-130.56-18.688s-18.688-56.064-18.688-130.56v-85.376c0-7.808 0-16.384 0.64-20.736 4.352-0.64 12.928-0.64 20.736-0.64h64v-42.624h-64c-23.552 0-39.040 0-51.456 12.544-12.544 12.544-12.544 28.032-12.544 51.456v85.376c0 83.456 0 129.536 31.232 160.768 31.104 31.232 77.184 31.232 160.64 31.232h384c83.456 0 129.536 0 160.768-31.232s31.232-77.312 31.232-160.768v-42.624c0-44.544 0-69.12-18.688-87.936-18.816-18.816-43.392-18.816-87.936-18.816zM512 64.768c-6.144 0-10.88 1.92-15.872 3.84l-91.52 36.608-92.544-30.848c-15.872-5.248-29.568-9.856-42.88-0.256s-13.312 24.064-13.312 40.704v354.56c0 44.544 0 69.12 18.688 87.936 18.688 18.688 43.264 18.688 87.936 18.688h298.624c44.544 0 69.12 0 87.936-18.688 18.688-18.688 18.688-43.264 18.688-87.936v-354.432c0-16.768 0-31.232-13.312-40.704-13.312-9.6-27.008-4.992-42.88 0.256l-92.544 30.848c0 0 0 0 0 0l-91.52-36.608c-4.608-2.048-9.344-3.968-15.488-3.968zM515.2 107.136c0 0 0 0 0 0s0 0 0 0zM405.12 148.608c0.256 0 0.512 0 0.896 0 5.632-0.128 9.984-1.92 14.464-3.712l91.52-36.608 91.52 36.608c4.608 1.792 8.96 3.584 14.592 3.712s9.984-1.28 14.72-2.816l92.544-30.848v354.432c0 30.976 0 51.456-6.272 57.728s-26.752 6.272-57.728 6.272h-298.752c-30.976 0-51.456 0-57.728-6.272s-6.272-26.752-6.272-57.728v-354.432l92.544 30.848c4.48 1.408 8.704 2.816 13.952 2.816zM576 362.624h-170.624c-11.776 0-21.376 9.6-21.376 21.376s9.6 21.376 21.376 21.376h170.624c11.776 0 21.376-9.6 21.376-21.376s-9.6-21.376-21.376-21.376zM618.624 234.624h-213.248c-11.776 0-21.376 9.6-21.376 21.376s9.6 21.376 21.376 21.376h213.376c11.776 0 21.376-9.6 21.376-21.376s-9.728-21.376-21.504-21.376zM768 682.624h-42.624v17.024c0 66.432 0 99.712-16.256 115.968-16.256 16.384-49.664 16.384-116.096 16.384h-162.048c-66.432 0-99.712 0-115.968-16.256s-16.256-49.536-16.256-115.968v-17.024h-42.752v17.024c0 75.776 0 117.504 28.8 146.176 28.8 28.8 70.4 28.8 146.176 28.8h162.176c75.776 0 117.504 0 146.176-28.8 28.8-28.8 28.8-70.4 28.8-146.176v-17.152z" />
<glyph unicode="&#xe901;" glyph-name="shop-bag" d="M740.736-39.040h-457.472c-98.432 0-178.56 80.128-178.56 178.56v552.704h814.464v-552.704c0.128-98.432-80-178.56-178.432-178.56zM186.24 610.816v-471.296c0-53.504 43.52-97.024 97.024-97.024h457.344c53.504 0 97.024 43.52 97.024 97.024v471.296h-651.392zM715.776 529.536h-81.536v203.52c0 67.456-54.784 122.24-122.24 122.24s-122.24-54.784-122.24-122.24v-203.52h-81.536v203.52c0 112.384 91.392 203.776 203.776 203.776s203.776-91.392 203.776-203.776v-203.52z" />
<glyph unicode="&#xe902;" glyph-name="folder-check" d="M725.376 128h-256v42.624h256c74.496 0 111.872 0 130.56 18.688s18.688 56.064 18.688 130.56v128.128c0 74.496 0 111.872-18.688 130.56s-56.064 18.688-130.56 18.688h-57.344c-36.48 0-56.576 0-76.16 8.064s-33.792 22.272-59.52 48.128l-28.032 28.032c-22.656 22.656-34.048 34.048-45.696 38.912-11.776 4.864-27.776 4.864-59.776 4.864h-14.848c-74.496 0-111.872 0-130.56-18.688s-18.688-56.064-18.688-130.56v-170.624h-42.752v170.624c0 83.456 0 129.536 31.232 160.768s77.312 31.232 160.768 31.232h14.592c36.48 0 56.576 0 76.16-8.064s33.792-22.272 59.648-48.128l28.032-28.032c22.656-22.656 34.048-34.048 45.696-38.912 11.776-4.864 27.776-4.864 59.904-4.864h57.344c83.456 0 129.536 0 160.768-31.232s31.232-77.184 31.232-160.768v-128c0-83.456 0-129.536-31.232-160.768-31.36-31.232-77.312-31.232-160.768-31.232zM277.376 119.168l-121.856 121.728 30.208 30.208 91.648-91.648 198.144 198.272 30.208-30.208z" />
<glyph unicode="&#xe903;" glyph-name="done-ring-round" d="M548.48 399.36c-13.44 0-26.88 4.096-38.272 12.672l-139.008 104.192c-9.472 7.040-11.392 20.48-4.224 29.824 7.040 9.472 20.48 11.392 29.824 4.224l139.008-104.32c8.832-6.656 21.504-5.376 28.8 3.072l272.64 311.552c7.808 8.832 21.248 9.728 30.080 2.048 8.832-7.808 9.728-21.248 2.048-30.080l-272.64-311.424c-12.544-14.336-30.336-21.76-48.256-21.76zM512.128 42.496c-39.552 0-79.104 5.888-117.76 17.536-81.536 24.704-152.064 73.472-203.904 141.184-51.84 67.584-80.768 148.352-83.584 233.472s20.736 167.552 68.096 238.464c47.36 70.784 114.56 124.16 194.304 154.112s165.376 34.176 247.68 12.16c11.392-3.072 18.176-14.72 15.104-26.112s-14.72-18.176-26.112-15.104c-73.6 19.712-150.272 16-221.568-10.88s-131.456-74.496-173.824-137.984c-42.368-63.36-63.36-137.216-60.928-213.376s28.288-148.48 74.752-208.896c46.464-60.416 109.44-104.192 182.4-126.208 72.96-22.144 149.632-20.864 221.824 3.584s133.76 70.272 178.176 132.224c44.416 61.952 67.84 135.040 67.84 211.2 0 11.776 9.6 21.376 21.376 21.376s21.376-9.6 21.376-21.376c0-85.248-26.24-166.784-75.904-236.16-49.664-69.248-118.528-120.32-199.168-147.712-42.496-14.208-86.272-21.504-130.176-21.504z" />
<glyph unicode="&#xe904;" glyph-name="check-2" d="M384 160c-8.192 0-16.384 3.072-22.656 9.344l-213.248 213.376c-12.544 12.544-12.544 32.768 0 45.312s32.768 12.544 45.312 0l190.72-190.72 446.72 446.72c12.544 12.544 32.768 12.544 45.312 0s12.544-32.768 0-45.312l-469.504-469.376c-6.272-6.272-14.464-9.344-22.656-9.344z" />
<glyph unicode="&#xe905;" glyph-name="book-check" d="M682.624 42.624h-405.248c-70.528 0-128 57.472-128 128v490.752c0 83.456 0 129.536 31.232 160.768s77.184 31.232 160.768 31.232h341.376c83.456 0 129.536 0 160.768-31.232s31.232-77.184 31.232-160.768v-426.624c0-83.456 0-129.536-31.232-160.768-31.36-31.36-77.312-31.36-160.896-31.36zM277.376 256c-47.104 0-85.376-38.272-85.376-85.376s38.272-85.376 85.376-85.376h405.376c74.496 0 111.872 0 130.56 18.688 18.688 18.944 18.688 56.32 18.688 130.688v43.008c-30.976-21.632-75.392-21.632-149.376-21.632h-405.248zM341.376 810.624c-74.496 0-111.872 0-130.56-18.688-18.816-18.816-18.816-56.192-18.816-130.56v-395.392c22.656 20.352 52.608 32.64 85.376 32.64h405.376c74.496 0 111.872 0 130.56 18.688 18.688 18.816 18.688 56.192 18.688 130.688v213.376c0 74.496 0 111.872-18.688 130.56s-56.064 18.688-130.56 18.688h-341.376zM469.376 444.288c-17.152 0-33.152 6.656-45.312 18.688l-55.168 55.168c-8.32 8.32-8.32 21.888 0 30.208s21.888 8.32 30.208 0l55.168-55.168c8.32-8.32 21.888-8.32 30.208 0l140.544 140.544c8.32 8.32 21.888 8.32 30.208 0s8.32-21.888 0-30.208l-140.672-140.416c-12.032-12.16-28.16-18.816-45.184-18.816z" />
<glyph unicode="&#xe906;" glyph-name="arrow-small-up" d="M512-64.267c-36.877 0-66.806 29.929-66.806 66.806v729.52l-242.372-242.372c-26.188-26.188-68.409-26.188-94.597 0s-26.188 68.409 0 94.597l356.209 356.209c0 0 0.267 0.267 0.267 0.267s0 0 0 0 0.267 0.267 0.267 0.267c0 0 0 0 0 0s0 0 0.267 0.267c0 0 0 0 0.267 0 0 0 0 0 0 0 6.146 5.879 13.361 10.422 20.843 13.628 0 0 0 0 0 0s0 0 0 0c6.948 2.939 14.697 4.543 22.714 4.81 0 0 0.267 0 0.267 0 1.336 0 2.939 0 4.276 0 0 0 0.267 0 0.267 0 8.017-0.267 15.499-1.871 22.714-4.81 0 0 0 0 0 0s0 0 0 0c7.482-3.207 14.697-7.749 20.843-13.628 0 0 0 0 0 0s0 0 0 0 0 0 0.267-0.267c0 0 0 0 0 0s0.267-0.267 0.267-0.267c0 0 0 0 0 0s0.267-0.267 0.267-0.267c0 0 0 0 0 0l357.278-356.209c26.188-26.188 26.188-68.409 0-94.597s-68.409-26.188-94.597 0l-242.104 242.372v-729.52c0-36.877-29.929-66.806-66.806-66.806z" />
<glyph unicode="&#xe907;" glyph-name="add" d="M967.111 391.111h-910.222c-31.403 0-56.889 25.486-56.889 56.889s25.486 56.889 56.889 56.889h910.222c31.403 0 56.889-25.486 56.889-56.889s-25.486-56.889-56.889-56.889zM512-64c-31.403 0-56.889 25.486-56.889 56.889v910.222c0 31.403 25.486 56.889 56.889 56.889s56.889-25.486 56.889-56.889v-910.222c0-31.403-25.486-56.889-56.889-56.889z" />
<glyph unicode="&#xe908;" glyph-name="user" d="M510.848 59.008c-82.688 0-144.768 7.424-190.080 22.528-81.152 27.136-98.176 77.056-98.176 114.048 0 27.264 8.832 53.504 26.368 78.208 15.616 22.144 37.504 41.856 64.896 58.624 54.144 33.28 124.16 51.584 196.992 51.584 72.576 0 142.336-18.176 196.608-51.2 27.52-16.768 49.408-36.352 65.152-58.368 17.664-24.704 26.624-51.072 26.624-78.208 0-36.992-16.896-86.912-97.664-114.304-45.696-15.488-108.032-22.912-190.72-22.912zM510.848 320.128c-128.384 0-224.256-65.792-224.256-124.544 0-9.6 0-35.072 54.528-53.376 38.144-12.8 95.232-19.2 169.728-19.2s131.712 6.528 169.984 19.584c54.272 18.432 54.272 44.16 54.272 53.76 0 58.368-95.872 123.776-224.256 123.776zM510.848 439.552h-1.152c-107.904 0.384-195.456 88.448-195.072 196.352 0 108.16 88.064 196.224 196.224 196.224s196.224-88.064 196.224-196.224c0-108.416-88.064-196.352-196.224-196.352zM510.848 768c-72.96 0-132.224-59.392-132.224-132.224-0.256-72.704 58.624-131.968 131.2-132.224h1.024c72.96 0 132.224 59.264 132.224 132.224s-59.264 132.224-132.224 132.224zM783.488 484.608c-14.080 0-27.008 9.472-30.848 23.68-4.608 17.024 5.632 34.56 22.656 39.168 40.064 10.752 67.968 47.104 67.968 88.576 0 43.392-30.72 81.152-73.216 89.856-17.28 3.584-28.544 20.48-24.96 37.76s20.48 28.544 37.76 24.96c72.064-14.72 124.416-78.848 124.416-152.576 0-70.4-47.488-132.224-115.456-150.4-2.816-0.64-5.632-1.024-8.32-1.024zM891.392 190.464c-14.464 0-27.648 9.984-31.104 24.704-4.096 17.152 6.656 34.432 23.808 38.4 20.096 4.736 30.848 21.888 30.848 32.384 0 22.528-44.032 64-106.752 64-17.664 0-32 14.336-32 32s14.336 32 32 32c41.856 0 83.2-13.184 116.224-37.12 34.688-25.088 54.528-58.24 54.528-90.88 0-43.264-34.432-83.968-80.256-94.72-2.304-0.512-4.864-0.768-7.296-0.768zM238.208 484.608c-2.688 0-5.504 0.384-8.32 1.152-67.84 18.176-115.328 80-115.328 150.4 0 73.728 52.352 137.856 124.416 152.576 17.28 3.584 34.176-7.68 37.76-24.96s-7.68-34.176-24.96-37.76c-42.368-8.704-73.216-46.464-73.216-89.856 0-41.472 27.904-77.952 67.968-88.576 17.024-4.608 27.264-22.144 22.656-39.168-3.84-14.336-16.768-23.808-30.976-23.808zM130.176 190.464c-2.432 0-4.864 0.256-7.296 0.896-45.696 10.752-80.256 51.456-80.256 94.72 0 32.64 19.84 65.792 54.528 90.88 33.024 23.936 74.368 37.12 116.224 37.12 17.664 0 32-14.336 32-32s-14.336-32-32-32c-62.72 0-106.752-41.6-106.752-64 0-10.496 10.752-27.648 30.848-32.384 17.152-4.096 27.904-21.248 23.808-38.4-3.328-14.848-16.512-24.832-31.104-24.832z" />
<glyph unicode="&#xe909;" glyph-name="check-1" d="M384 200.533c-8.533 0-17.067 4.267-21.333 8.533l-170.667 170.667c-12.8 12.8-12.8 34.133 0 46.933s34.133 12.8 46.933 0l145.067-145.067 405.333 405.333c12.8 12.8 34.133 12.8 46.933 0s12.8-34.133 0-46.933l-426.667-426.667c-8.533-8.533-17.067-12.8-25.6-12.8z" />
<glyph unicode="&#xe90a;" glyph-name="calendar" d="M810.667-21.333h-597.333c-72.533 0-128 55.467-128 128v597.333c0 72.533 55.467 128 128 128h597.333c72.533 0 128-55.467 128-128v-597.333c0-72.533-55.467-128-128-128zM213.333 746.667c-25.6 0-42.667-17.067-42.667-42.667v-597.333c0-25.6 17.067-42.667 42.667-42.667h597.333c25.6 0 42.667 17.067 42.667 42.667v597.333c0 25.6-17.067 42.667-42.667 42.667h-597.333zM896 490.667h-768c-25.6 0-42.667 17.067-42.667 42.667s17.067 42.667 42.667 42.667h768c25.6 0 42.667-17.067 42.667-42.667s-17.067-42.667-42.667-42.667zM682.667 661.333c-25.6 0-42.667 17.067-42.667 42.667v170.667c0 25.6 17.067 42.667 42.667 42.667s42.667-17.067 42.667-42.667v-170.667c0-25.6-17.067-42.667-42.667-42.667zM341.333 661.333c-25.6 0-42.667 17.067-42.667 42.667v170.667c0 25.6 17.067 42.667 42.667 42.667s42.667-17.067 42.667-42.667v-170.667c0-25.6-17.067-42.667-42.667-42.667z" />
<glyph unicode="&#xe90b;" glyph-name="arrow-square-right" d="M690.773 874.667h-357.547c-155.307 0-247.893-92.587-247.893-247.893v-357.12c0-155.733 92.587-248.32 247.893-248.32h357.12c155.307 0 247.893 92.587 247.893 247.893v357.547c0.427 155.307-92.16 247.893-247.467 247.893zM631.040 425.387l-150.613-150.613c-6.4-6.4-14.507-9.387-22.613-9.387s-16.213 2.987-22.613 9.387c-12.373 12.373-12.373 32.853 0 45.227l128 128-128 128c-12.373 12.373-12.373 32.853 0 45.227s32.853 12.373 45.227 0l150.613-150.613c12.8-12.373 12.8-32.853 0-45.227z" />
<glyph unicode="&#xe90c;" glyph-name="arrow-down" d="M520.533 260.267l-221.867 221.867 42.667 46.933 179.2-179.2 174.933 179.2 42.667-46.933z" />
<glyph unicode="&#xe90d;" glyph-name="chat" d="M512 848c-220.927-0.061-400-179.172-400-400.107 0-72.847 19.468-141.147 53.485-199.981l-1.028 1.928-36.016-126.059c-1.173-3.951-1.847-8.491-1.847-13.189 0-26.509 21.49-47.999 47.999-47.999 4.696 0 9.234 0.674 13.523 1.931l-0.339-0.085 126.066 36.016c56.923-33.023 125.25-52.512 198.128-52.512 220.929 0 400.028 179.099 400.028 400.028 0 220.92-179.083 400.012-399.999 400.028h-0.001zM512 80c-0.073 0-0.16 0-0.247 0-69.208 0-133.947 19.131-189.218 52.394l1.657-0.925c-2.337 1.412-5.161 2.248-8.179 2.248-1.565 0-3.078-0.225-4.508-0.644l0.113 0.028-132.629-37.895c-1.317-0.391-2.83-0.615-4.395-0.615-8.837 0-16.002 7.164-16.002 16.002 0 1.565 0.225 3.078 0.644 4.508l-0.028-0.113 37.891 132.625c0.391 1.317 0.616 2.83 0.616 4.396 0 3.018-0.836 5.841-2.289 8.25l0.040-0.072c-32.391 53.698-51.553 118.54-51.553 187.857 0 203.265 164.779 368.044 368.044 368.044s368.044-164.779 368.044-368.044c0-203.25-164.754-368.019-367.998-368.044h-0.002zM656 512c0-8.836-7.164-16-16-16h-256c-8.837 0-16 7.163-16 16s7.163 16 16 16v0h256c8.836 0 16-7.164 16-16v0zM656 384c0-8.836-7.164-16-16-16h-256c-8.837 0-16 7.163-16 16s7.163 16 16 16v0h256c8.836 0 16-7.164 16-16v0z" />
<glyph unicode="&#xe90e;" glyph-name="check" d="M456.397 947.661c-144.906-17.633-271.053-92.436-354.335-209.654-64.522-90.87-95.109-193.126-91.546-306.78 4.024-129.946 54.252-246.272 146.688-338.483 75.469-75.244 165.448-122.132 271.718-141.107 24.34-4.239 36.393-4.915 82.166-5.13 58.501 0 78.367 2.232 126.812 14.51 92.436 23.224 185.098 79.708 247.388 150.036 67.441 76.36 107.182 159.867 124.15 260.342 6.246 37.284 5.581 121.242-1.116 159.642-18.975 106.281-65.864 196.26-141.107 271.718-75.018 75.244-165.448 122.132-271.278 140.882-30.362 5.366-110.070 7.813-139.54 4.024zM752.23 723.497c10.496-10.271 9.605-12.503-26.798-56.269-70.103-84.398-140.206-210.319-196.925-354.56-17.418-43.54-48.22-134.185-50.903-149.146-0.891-4.465-2.458-8.704-3.348-9.38-0.891-0.666-13.169 9.605-27.013 22.548-87.747 81.94-169.912 147.139-213.453 169.912-21.207 11.162-26.573 16.968-23.89 26.122 2.458 8.264 7.813 12.503 15.852 12.503 23.89 0 104.94-57.825 201.165-143.565 18.309-16.302 29.921-25.231 30.587-23.439 0.451 1.567 6.246 18.084 12.503 36.393 61.85 181.074 157.42 357.468 247.839 457.267 17.644 19.425 24.556 21.658 34.386 11.612z" />
<glyph unicode="&#xe90f;" glyph-name="up-down" d="M503.467 635.733l221.867-221.867-42.667-46.933-179.2 179.2-174.933-179.2-42.667 46.933z" />
<glyph unicode="&#xe910;" glyph-name="check-3" d="M512-64c136.752 0 265.328 53.264 362.016 149.968 96.72 96.704 149.984 225.28 149.984 362.032s-53.264 265.328-149.968 362.016c-96.704 96.72-225.28 149.984-362.032 149.984s-265.328-53.264-362.016-149.968c-96.72-96.704-149.984-225.28-149.984-362.032s53.264-265.328 149.968-362.016c96.704-96.72 225.28-149.984 362.032-149.984zM195.232 764.768c84.608 84.624 197.104 131.232 316.768 131.232s232.16-46.608 316.768-131.232c84.624-84.608 131.232-197.104 131.232-316.768s-46.608-232.16-131.232-316.768c-84.608-84.624-197.104-131.232-316.768-131.232s-232.16 46.608-316.768 131.232c-84.624 84.608-131.232 197.104-131.232 316.768s46.608 232.16 131.232 316.768zM382.992 192c0.336 0 0.672 0 1.008 0 8.688 0 17.024 3.536 23.072 9.824l400 416c12.24 12.736 11.856 32.992-0.896 45.248s-32.992 11.84-45.248-0.896l-375.408-390.432-153.088 180.928c-11.424 13.504-31.616 15.184-45.104 3.76-13.488-11.408-15.168-31.616-3.76-45.104l176-208c5.856-6.928 14.368-11.328 23.424-11.328z" />
<glyph unicode="&#xe911;" glyph-name="clock" d="M512-64c-136.76 0-265.334 53.259-362.040 149.96-96.701 96.706-149.96 225.28-149.96 362.040s53.259 265.334 149.96 362.040c96.706 96.701 225.28 149.96 362.040 149.96s265.334-53.259 362.040-149.96c96.701-96.706 149.96-225.28 149.96-362.040s-53.259-265.334-149.96-362.040c-96.706-96.701-225.28-149.96-362.040-149.96zM512 896.66c-247.392 0-448.66-201.268-448.66-448.66s201.268-448.66 448.66-448.66 448.66 201.268 448.66 448.66-201.268 448.66-448.66 448.66zM543.67 416.87h-364.2v63.34h300.86v300.325h63.34z" />
<glyph unicode="&#xe912;" glyph-name="collection" d="M85.333 874.667v-640h640v640zM128 277.333v554.667h375.893c-7.875-10.452-12.612-23.655-12.612-37.964 0-8.294 1.591-16.216 4.485-23.477l-0.151 0.428c-7.481-7.095-13.293-15.874-16.836-25.735l-0.145-0.463c-1.914-5.261-3.063-11.335-3.157-17.664v-0.042c-8.592-4.571-15.835-10.534-21.705-17.67l-0.097-0.122c-8.806-9.807-14.191-22.842-14.191-37.134 0-3.22 0.273-6.376 0.798-9.446l-0.047 0.329c1.045-4.293 1.99-9.661 2.625-15.124l0.063-0.663c-10.454-6.843-19.057-15.636-25.48-25.93l-0.205-0.352c-7.932 3.98-17.282 6.311-27.178 6.315h-0.001c-27.144-0.321-50-18.319-57.613-43.002l-0.115-0.432c-11.009 11.123-26.279 18.010-43.158 18.010-0.277 0-0.554-0.002-0.83-0.006h0.042c-37.104-0.715-66.908-30.962-66.908-68.169 0-0.334 0.002-0.668 0.007-1.001l-0.001 0.050c0.075-8.552 1.332-16.781 3.616-24.572l-0.16 0.636c0.365 0.097 0.664 0.327 0.85 0.634l0.004 0.006c-7.6-12.038-12.287-26.588-12.754-42.2l-0.003-0.126c0.452-25.085 16.813-46.232 39.4-53.812l0.408-0.119c-4.872-9.015-7.735-19.734-7.735-31.121 0-11.92 3.138-23.108 8.632-32.782l-0.172 0.329c8.275-14.979 22.366-25.885 39.149-29.746l0.403-0.078c-3.711-10.282-5.906-22.147-6.016-34.51v-0.050l0.043-7.893zM682.667 277.333h-207.957c1.28 19.2 1.749 35.243 1.749 35.541v5.803l-0.512 2.048c22.836 9.88 38.708 31.847 39.592 57.619l0.003 0.109c0 0.024 0 0.053 0 0.082 0 4.159-0.466 8.209-1.35 12.101l0.070-0.365c7.44 7.649 13.061 17.106 16.139 27.648l0.117 0.47c13.184 0.471 25.174 5.219 34.717 12.889l-0.114-0.089 1.493-1.28c16.225-13.219 37.153-21.226 59.951-21.226 1.875 0 3.737 0.054 5.584 0.161l-0.256-0.012h25.856c9.024 0.377 17.542 1.972 25.579 4.627l-0.661-0.189zM682.667 832v-374.699c-12.373-3.2-23.040-5.803-24.917-5.803h-25.856c-1.55-0.161-3.35-0.253-5.17-0.253-12.152 0-23.348 4.090-32.288 10.969l0.125-0.092c-10.88 9.387-10.581 28.544-25.387 28.544-19.883 0-21.376-29.696-41.259-29.696-8.96 0-13.227 6.443-22.187 6.443-0.407 0.040-0.88 0.063-1.359 0.063-7.525 0-13.72-5.696-14.507-13.012l-0.006-0.064v-20.608c0-17.451-23.339-20.907-23.339-38.4 0-7.083 6.4-9.813 6.4-16.896 0-23.851-42.411-20.651-42.411-44.459 0-7.808 2.901-12.501 3.2-20.011 0.058-0.279 0.090-0.601 0.090-0.93 0-0.078-0.002-0.156-0.006-0.233v0.011c0-4.395-0.64-19.456-1.835-35.541h-102.144l-0.043 7.851c0.561 11.317 3.175 21.885 7.476 31.535l-0.223-0.559c2.626 6.794 4.197 14.653 4.309 22.864l0.001 0.048c0 22.528-42.923 16.128-49.664 29.653-16.768 33.493 28.501 42.112 28.501 68.779 0 6.571-3.413 20.053-13.781 21.205-14.421 1.451-18.176-6.4-32.725-6.4-0.436-0.041-0.943-0.064-1.455-0.064-8.581 0-15.645 6.496-16.544 14.838l-0.006 0.073c0 15.872 12.672 23.253 12.672 39.125 0 10.368-4.267 16.213-4.267 26.453-0.013 0.3-0.020 0.653-0.020 1.007 0 13.67 10.768 24.824 24.284 25.445l0.056 0.002c13.312 0 19.029-10.88 25.387-22.187 4.705-7.755 13.103-12.857 22.692-12.857 0.964 0 1.917 0.052 2.854 0.152l-0.116-0.010c20.139 0 32.811 25.088 32.811 40.192-0.010 0.232-0.016 0.505-0.016 0.778 0 10.24 7.911 18.633 17.955 19.399l0.066 0.004c14.251 0 19.584-14.848 33.835-14.848 23.552 0 22.699 31.147 43.392 42.24 25.429 13.739 18.005 43.477 14.805 59.307-1.408 7.040 11.947 20.608 19.029 20.181 29.653-2.219 16.981 22.101 16.981 33.792-0.002 0.085-0.002 0.185-0.002 0.286 0 1.977 0.345 3.874 0.978 5.633l-0.036-0.116c4.608 13.653 24.491 18.005 24.491 34.432 0 11.52-9.557 16.896-9.557 28.501 0 14.080 17.067 26.795 37.675 37.931zM810.667 149.333v554.667h-42.667v42.667h85.333v-640h-640v85.333h42.667v-42.667zM938.667 21.333v554.667h-42.667v42.667h85.333v-640h-640v85.333h42.667v-42.667z" />
<glyph unicode="&#xe913;" glyph-name="comment-outline" d="M80.455 960c-44.573 0-80.455-35.882-80.455-80.455v-943.545l219.429 219.429h724.116c44.573 0 80.455 35.882 80.455 80.455v643.661c0 44.573-35.882 80.455-80.455 80.455h-863.089zM109.714 886.857h804.571c20.261 0 36.571-16.311 36.571-36.571v-585.143c0-20.261-16.311-36.571-36.571-36.571h-731.429l-109.714-109.714v731.429c0 20.261 16.311 36.571 36.571 36.571z" />
<glyph unicode="&#xe914;" glyph-name="dot-line" d="M512 960c-282.782 0-512-229.218-512-512s229.218-512 512-512 512 229.218 512 512-229.218 512-512 512zM512 16c-238.594 0-432 193.406-432 432s193.406 432 432 432 432-193.406 432-432-193.406-432-432-432zM768 608v96h-96v-73.406l-342.624-342.594h-73.376v-96h96v73.376l342.656 342.624h73.344zM704 672h32v-32h-32v32zM320 224h-32v32h32v-32z" />
<glyph unicode="&#xe915;" glyph-name="email1" d="M963.584 20.992l25.088 26.726h-853.094c-41.472 0-75.162 35.84-75.162 80.179v747.11l-25.088-26.726h853.094c41.472 0 75.162-35.84 75.162-79.974v-67.174c0-14.746 11.264-26.726 25.088-26.726s25.088 11.981 25.088 26.726v67.174c0 73.626-56.115 133.325-125.338 133.325h-878.182v-773.837c0-73.83 56.013-133.53 125.338-133.53h878.182v521.114c0 14.746-11.264 26.726-25.088 26.726s-25.088-11.981-25.088-26.726v-494.387zM503.091 405.094c7.885-5.939 18.125-6.554 26.624-1.638l453.53 264.602c12.186 7.066 16.589 23.347 9.933 36.25s-21.914 17.613-34.099 10.547l-453.427-264.602 26.624-1.638-341.402 257.946c-11.264 8.499-26.931 5.734-35.021-6.246-7.987-11.981-5.325-28.672 5.939-37.171l341.299-258.048z" />
<glyph unicode="&#xe916;" glyph-name="globe" d="M879.658 290.502c0.426 0.762 0.819 1.653 1.128 2.581l0.032 0.112c19.713 45.692 31.178 98.89 31.178 154.765 0 134.85-66.777 254.103-169.068 326.496l-1.248 0.838c-1.080 1.012-2.314 1.879-3.658 2.56l-0.090 0.041c-63.245 43.883-141.631 70.104-226.141 70.104-220.8 0-399.794-178.994-399.794-399.794 0-85.856 27.064-165.392 73.125-230.541l-0.84 1.252c0.135-0.25 0.213-0.516 0.363-0.762 0.621-1 1.296-1.868 2.052-2.658l-0.006 0.006c73.328-101.917 191.605-167.504 325.201-167.504 92.467 0 177.596 31.42 245.292 84.166l-0.893-0.67c1.246 0.709 2.321 1.521 3.279 2.453l-0.004-0.003c0.086 0.086 0.143 0.187 0.225 0.275 51.606 41.060 92.389 93.522 118.856 153.702l1.012 2.579zM511.996 816c0.121 0 0.264 0 0.407 0 75.542 0 145.737-22.896 204.023-62.126l-1.307 0.829 4.279-89.051c0.013-0.238 0.020-0.516 0.020-0.796 0-4.003-1.478-7.661-3.919-10.457l0.016 0.019-88.629-102.406c-2.489-2.864-5.95-4.827-9.865-5.373l-0.084-0.010-125.918-17.055c-0.654-0.095-1.408-0.15-2.176-0.15-3.52 0-6.773 1.143-9.408 3.079l0.044-0.031-78.625 56.965c-7.798 5.704-17.579 9.127-28.159 9.127-16.925 0-31.805-8.76-40.352-21.993l-0.114-0.189-79.369-124.391c-4.682-7.229-7.484-16.056-7.535-25.533v-0.013l-0.811-144.516c-0.053-5.742-3.104-10.759-7.661-13.569l-0.069-0.040-33.582-20.27c-37.118 56.485-59.207 125.726-59.207 200.125 0 203.144 164.68 367.824 367.824 367.824 0.062 0 0.124 0 0.186 0h-0.009zM221.836 221.918l31.488 19.008c13.878 8.549 23.030 23.6 23.189 40.801v0.023l0.811 144.516c0.019 3.164 0.954 6.106 2.552 8.578l-0.038-0.063 79.369 124.391c2.889 4.473 7.849 7.391 13.49 7.391 3.526 0 6.785-1.14 9.43-3.071l-0.045 0.032 78.625-56.965c7.785-5.709 17.554-9.136 28.124-9.136 2.285 0 4.532 0.16 6.731 0.47l-0.253-0.029 125.924 17.055c11.999 1.665 22.385 7.555 29.802 16.094l0.050 0.059 88.627 102.402c7.275 8.341 11.712 19.323 11.712 31.341 0 0.836-0.021 1.667-0.064 2.493l0.005-0.116-3.012 62.633c80.71-67.892 131.644-168.939 131.644-281.882 0-43.808-7.663-85.826-21.721-124.787l0.807 2.562-82.248 75.221c-8.526 7.781-19.92 12.546-32.426 12.546-6.634 0-12.955-1.341-18.707-3.767l0.317 0.119-121.803-50.625c-15.348-6.549-26.453-20.395-29.030-37.058l-0.034-0.27-9.539-64.785c-0.33-2.113-0.518-4.55-0.518-7.031 0-22.171 15.047-40.827 35.486-46.315l0.335-0.077 85.828-22.52c2.86-0.769 5.315-2.222 7.27-4.176v0l29.73-29.789c-58.946-42.026-132.44-67.191-211.812-67.191-117.561 0-222.228 55.209-289.488 141.113l-0.607 0.804zM749.246 166.934l-32.584 32.648c-5.855 5.864-13.217 10.223-21.455 12.446l-0.336 0.077-85.832 22.523c-6.925 1.854-11.942 8.073-11.942 15.464 0 0.826 0.063 1.637 0.184 2.43l-0.011-0.089 9.539 64.785c0.871 5.644 4.572 10.26 9.583 12.405l0.105 0.040 121.805 50.625c1.81 0.767 3.916 1.213 6.125 1.213 4.17 0 7.969-1.589 10.825-4.194l-0.013 0.011 90.988-83.215c-23.645-50.322-56.378-92.716-96.448-126.731l-0.532-0.441z" />
<glyph unicode="&#xe917;" glyph-name="heart" d="M941.29 814.55c-53.62 53.62-124.608 82.927-200.371 82.927s-146.968-29.524-200.588-83.144l-28.004-28.004-28.438 28.438c-53.62 53.62-125.042 83.361-200.805 83.361-75.546 0-146.751-29.524-200.154-82.927-53.62-53.62-83.144-124.825-82.927-200.588 0-75.763 29.741-146.751 83.361-200.371l407.689-407.689c5.644-5.644 13.242-8.683 20.623-8.683s14.979 2.822 20.623 8.466l408.557 407.038c53.62 53.62 83.144 124.825 83.144 200.588 0.217 75.763-29.090 146.968-82.71 200.588zM899.609 454.837l-387.934-386.414-387.066 387.066c-42.549 42.549-65.994 98.992-65.994 159.125s23.228 116.576 65.777 158.907c42.332 42.332 98.774 65.777 158.69 65.777 60.133 0 116.793-23.445 159.342-65.994l49.062-49.062c11.506-11.506 29.958-11.506 41.464 0l48.627 48.627c42.549 42.549 99.209 65.994 159.125 65.994s116.358-23.445 158.907-65.777c42.549-42.549 65.777-98.992 65.777-159.125 0.217-60.133-23.228-116.576-65.777-159.125z" />
<glyph unicode="&#xe918;" glyph-name="img-box1" d="M810.564 350.276l-15.322 15.322c-17.088 17.092-30.874 30.874-42.97 41.071-12.459 10.5-24.593 18.492-38.797 22.775-20.092 6.063-41.527 6.063-61.619 0-14.204-4.284-26.338-12.275-38.797-22.775-12.096-10.197-25.882-23.979-42.97-41.071l-0.678-0.674c-12.787-12.791-21.325-21.295-28.262-27.034-6.886-5.696-9.865-6.622-11.072-6.831-5.154-0.905-10.462 0.115-14.912 2.871-1.041 0.644-3.465 2.611-7.74 10.453-4.314 7.906-9.079 18.974-16.205 35.597l-2.795 6.519c-15.556 36.297-27.921 65.152-39.97 86.562-12.245 21.76-25.834 39.006-45.438 48.836-17.557 8.798-37.202 12.583-56.772 10.931-21.852-1.843-40.874-12.813-60.323-28.463-19.141-15.407-41.339-37.606-69.263-65.532v0l-0.923-0.922-2.404-2.406v-30.17c0-10.509 0.003-20.553 0.019-30.148l32.555 32.555c29.056 29.052 49.639 49.596 66.769 63.381 17.033 13.713 27.913 18.411 37.158 19.191 11.742 0.99 23.529-1.28 34.063-6.562 8.294-4.156 16.651-12.561 27.374-31.616 10.784-19.162 22.269-45.879 38.452-83.648l2.688-6.272c6.609-15.42 12.16-28.369 17.557-38.263 5.542-10.163 12.326-19.857 22.741-26.304 13.35-8.265 29.278-11.332 44.745-8.619 12.066 2.121 21.965 8.602 30.882 15.979 8.687 7.181 18.65 17.143 30.511 29.009l0.734 0.734c17.924 17.924 30.434 30.404 40.973 39.287 10.338 8.713 17.301 12.646 23.625 14.558 12.058 3.635 24.917 3.635 36.975 0 6.323-1.911 13.286-5.845 23.625-14.558 10.539-8.883 23.049-21.363 40.973-39.287l43.87-43.874c0.563 17.51 0.823 37.141 0.943 59.396zM768 640c0-35.346-28.654-64-64-64s-64 28.654-64 64c0 35.346 28.654 64 64 64s64-28.654 64-64z" />
<glyph unicode="&#xe919;" glyph-name="interior-design" d="M136.569-64h750.883c28.274 0 51.196 22.922 51.196 51.196v575.894l6.058-4.010c11.133-7.687 24.935-10.463 38.175-7.679 13.622 2.818 25.503 11.072 32.902 22.851l0.103 0.171c14.994 24.158 8.43 55.827-14.932 72.033l-460.854 304.942c-16.927 11.469-39.133 11.469-56.060 0l-461.111-305.098c-23.314-16.261-29.796-47.938-14.744-72.050 7.317-11.77 19.131-20.032 32.697-22.868 3.41-0.686 6.881-1.030 10.359-1.025 9.946-0.014 19.666 2.959 27.902 8.533l6.228 4.181v-575.875c0-28.274 22.922-51.196 51.198-51.196zM904.515-12.804c0-9.425-7.64-17.065-17.065-17.065h-750.881c-9.425 0-17.065 7.64-17.065 17.065v598.437l392.506 259.396 392.506-259.396zM60.131 587.305c-3.572-2.47-8.005-3.359-12.254-2.458-4.484 0.937-8.384 3.677-10.785 7.577-5.403 8.428-3.3 19.606 4.795 25.497l461.128 305.113c2.653 1.802 5.787 2.764 8.994 2.764 3.271-0.014 6.462-1.006 9.165-2.85l460.82-304.944c8.161-5.833 10.347-17.021 4.982-25.497-2.458-3.948-6.421-6.722-10.972-7.679-4.277-0.85-8.719 0.086-12.288 2.593l-442.287 292.301c-5.703 3.724-13.069 3.724-18.771 0zM369.444 637.955c-19.819 19.725-51.856 19.725-71.675 0l-95.156-95.156c-19.735-19.816-19.735-51.859 0-71.675l154.425-154.562-94.987-95.004c-2.059-2.042-3.559-4.582-4.352-7.373l-39.779-139.272c-2.828-9.882-0.852-20.519 5.336-28.726s15.872-13.033 26.149-13.033c3.041 0.007 6.068 0.431 8.994 1.263l139.272 39.813c2.79 0.793 5.329 2.293 7.373 4.352l95.021 94.952 154.459-154.476c19.825-19.716 51.85-19.716 71.675 0l95.156 95.156c19.735 19.816 19.735 51.859 0 71.675l-154.375 154.562 130.67 130.67c12.685 12.666 19.813 29.857 19.813 47.783s-7.128 35.116-19.813 47.783l-47.578 47.578c-12.643 12.715-29.852 19.838-47.783 19.779-17.928 0.061-35.135-7.055-47.783-19.762l-130.552-130.807zM309.852 126.365c-10.039 9.943-22.049 17.674-35.257 22.697l10.616 37.186 59.183-25.36 25.36-59.183-37.186-10.616c-5.028 13.216-12.766 25.233-22.716 35.275zM377.618 169.986l253.337 253.337 35.343-35.343-267.484-267.467zM595.63 506.927l35.343 35.343 94.817-94.817-35.36-35.326zM606.843 447.453l-253.355-253.337-49.49 21.196 267.484 267.484zM226.743 495.238c-6.47 6.477-6.47 16.971 0 23.448l95.156 95.156c6.477 6.47 16.971 6.47 23.448 0l35.514-35.514-35.514-35.514c-4.436-4.284-6.215-10.629-4.654-16.597 1.562-5.966 6.222-10.626 12.188-12.188s12.311 0.218 16.597 4.654l35.514 35.514 35.343-35.377-23.618-23.618c-4.436-4.284-6.215-10.629-4.654-16.597 1.562-5.966 6.222-10.626 12.188-12.188s12.311 0.218 16.597 4.654l23.618 23.618 35.343-35.343-118.606-118.606zM251.42 67.916l13.652 48.124c15.507-6.541 27.845-18.881 34.388-34.388zM678.193 280.928l-23.618-23.618c-4.436-4.284-6.215-10.629-4.654-16.597 1.562-5.966 6.222-10.626 12.188-12.188s12.311 0.218 16.597 4.654l23.618 23.652 35.343-35.343-35.514-35.514c-4.436-4.284-6.215-10.629-4.654-16.597 1.562-5.966 6.222-10.626 12.188-12.188s12.311 0.218 16.597 4.654l35.514 35.514 35.495-35.512c6.47-6.477 6.47-16.971 0-23.448l-95.156-95.158c-6.477-6.47-16.971-6.47-23.448 0l-154.459 154.459 118.606 118.606zM702.307 599.848c8.864 0.029 17.37-3.493 23.618-9.779l47.578-47.578c13.026-13.045 13.026-34.175 0-47.22l-23.601-23.688-94.817 94.817 23.618 23.618c6.238 6.298 14.739 9.838 23.603 9.829z" />
<glyph unicode="&#xe91a;" glyph-name="management" d="M134.727 455.043c0.65-0.025 1.414-0.040 2.181-0.040 26.628 0 49.183 17.44 56.865 41.521l0.116 0.423 21.846 86.758c9.349-6.892 21.095-11.030 33.808-11.030 7.895 0 15.417 1.596 22.262 4.483l-0.377-0.141 128.341 54.467c36.241 16.106 62.245 49.412 67.797 89.265l0.069 0.604 10.688 70.312c0.118 0.729 0.185 1.569 0.185 2.425 0 4.65-1.987 8.835-5.159 11.754l-0.011 0.010-93.525 85.978c-2.846 2.584-6.643 4.166-10.81 4.166-5.185 0-9.797-2.449-12.743-6.254l-0.028-0.037c-12.629-14.588-50.448-71.92-65.6-81.806l-108.121-62.521c-18.743-12.978-32.698-31.71-39.394-53.612l-0.188-0.714-47.66-182.855c-1.059-3.489-1.669-7.499-1.669-11.652 0-22.789 18.367-41.289 41.106-41.502h0.020zM126.070 499.532l47.661 182.847c4.551 14.87 13.624 27.223 25.594 35.786l0.206 0.14 108.136 62.53c22.197 14.283 46.785 55.77 63.445 75.516l74.304-68.296-9.407-61.881c-3.926-29.285-22.616-53.45-48.216-65.022l-0.523-0.212-128.357-54.467c-2.747-1.171-5.943-1.851-9.298-1.851-3.788 0-7.373 0.867-10.567 2.415l0.145-0.063c-10.081 3.662-24.594 22.756-11.673 30.449l110.855 47.051c5.622 2.564 9.458 8.136 9.458 14.603 0 8.838-7.165 16.003-16.003 16.003-2.146 0-4.194-0.423-6.064-1.189l0.107 0.039-110.87-47.052c-14.694-6.721-24.719-21.293-24.719-38.208 0-3.581 0.449-7.058 1.295-10.376l-0.063 0.29-28.409-112.918c-2.007-16.177-40.71-29.625-37.035-6.133zM463.057 129.892l-86.806 21.846c6.916 9.361 11.070 21.129 11.070 33.867 0 7.875-1.588 15.38-4.46 22.211l0.141-0.377-54.474 128.341c-16.11 36.242-49.422 62.245-89.281 67.79l-0.603 0.069-70.304 10.696c-0.72 0.115-1.55 0.18-2.396 0.18-4.659 0-8.854-1.988-11.783-5.161l-0.010-0.011-85.978-93.525c-2.587-2.847-4.172-6.646-4.172-10.815 0-5.187 2.452-9.801 6.26-12.746l0.037-0.028c14.56-12.607 71.963-50.456 81.791-65.606l62.537-108.107c12.976-18.746 31.713-32.701 53.621-39.388l0.713-0.187 182.846-47.678c3.572-1.117 7.679-1.762 11.937-1.766h0.002c59.751 3.005 49.4 87.536-0.688 100.394zM469.574 63.604c-1.613-1.293-3.684-2.075-5.937-2.075-1.137 0-2.228 0.199-3.239 0.565l0.066-0.021-182.847 47.677c-14.868 4.542-27.217 13.615-35.77 25.586l-0.14 0.206-62.538 108.097c-14.208 22.2-55.797 46.834-75.522 63.484l68.303 74.288 61.881-9.415c29.285-3.911 53.452-22.599 65.014-48.201l0.211-0.523 54.474-128.326c0.983-2.737 1.551-5.895 1.551-9.185 0-12.053-7.624-22.324-18.312-26.256l-0.194-0.062c-1.422-0.779-3.116-1.238-4.917-1.238-3.877 0-7.258 2.124-9.042 5.272l-0.027 0.052-47.051 110.856c-2.499 5.783-8.153 9.756-14.736 9.756-8.84 0-16.007-7.167-16.007-16.007 0-2.258 0.467-4.406 1.311-6.354l-0.040 0.104 47.052-110.848c6.753-14.713 21.358-24.746 38.307-24.746 3.559 0 7.016 0.443 10.316 1.276l-0.29-0.062 112.887-28.387c13.383-2.68 24.766-26.034 15.236-35.511zM885.351 440.784c-25.951-0.515-47.748-17.724-55.128-41.306l-0.113-0.418-21.846-86.759c-9.353 6.887-21.102 11.021-33.816 11.021-7.891 0-15.411-1.593-22.254-4.474l0.378 0.141-128.341-54.467c-36.241-16.106-62.245-49.412-67.797-89.265l-0.069-0.604-10.688-70.312c-0.118-0.729-0.185-1.569-0.185-2.424 0-4.65 1.987-8.836 5.159-11.754l0.011-0.010 93.524-85.978c2.845-2.588 6.643-4.173 10.811-4.173 5.186 0 9.799 2.453 12.742 6.262l0.028 0.037c12.57 14.524 50.492 71.963 65.6 81.805l108.121 62.521c18.743 12.978 32.698 31.71 39.394 53.612l0.188 0.714 47.661 182.855c1.051 3.477 1.656 7.473 1.656 11.61 0 22.928-18.587 41.515-41.515 41.515-1.239 0-2.466-0.054-3.678-0.161l0.157 0.011zM897.93 396.475l-47.661-182.848c-4.551-14.87-13.624-27.223-25.594-35.786l-0.205-0.14-108.136-62.53c-22.197-14.282-46.785-55.77-63.445-75.515l-74.304 68.295 9.407 61.881c3.926 29.285 22.616 53.45 48.216 65.022l0.523 0.212 128.357 54.467c2.747 1.163 5.942 1.84 9.295 1.84 3.788 0 7.374-0.863 10.572-2.403l-0.146 0.063c10.081-3.662 24.594-22.756 11.673-30.449l-110.855-47.051c-5.624-2.563-9.463-8.136-9.463-14.605 0-8.838 7.165-16.002 16.002-16.002 2.148 0 4.198 0.423 6.069 1.191l-0.107-0.039 110.87 47.051c14.694 6.721 24.719 21.293 24.719 38.208 0 3.581-0.449 7.058-1.295 10.376l0.063-0.29 28.409 112.918c2.092 16.248 40.801 29.59 37.036 6.133zM953.701 603.776c-14.492 12.55-72.010 50.5-81.791 65.607l-62.537 108.106c-12.976 18.746-31.713 32.7-53.621 39.387l-0.713 0.187-182.846 47.677c-68.075 13.712-68.638-82.952-11.25-98.626l86.805-21.847c-6.916-9.361-11.070-21.129-11.070-33.867 0-7.875 1.588-15.38 4.46-22.211l-0.141 0.377 54.474-128.341c16.11-36.242 49.422-62.245 89.281-67.79l0.603-0.069 70.304-10.696c0.717-0.114 1.545-0.178 2.387-0.178 4.662 0 8.859 1.987 11.792 5.161l0.010 0.011 85.977 93.525c2.587 2.847 4.171 6.646 4.171 10.815 0 5.186-2.452 9.8-6.259 12.746l-0.037 0.028zM852.050 514.595l-61.881 9.415c-29.285 3.911-53.451 22.599-65.014 48.201l-0.211 0.523-54.474 128.326c-1.030 2.731-1.626 5.888-1.626 9.183 0 14.769 11.972 26.741 26.741 26.741 0.29 0 0.579-0.005 0.867-0.014l-0.042 0.001c2.249-0.744 4.033-2.363 4.979-4.443l0.021-0.052 47.052-110.855c2.563-5.63 8.14-9.473 14.615-9.473 8.842 0 16.010 7.168 16.010 16.010 0 2.149-0.423 4.199-1.192 6.072l0.039-0.107-47.052 110.846c-6.755 14.713-21.361 24.746-38.31 24.746-3.558 0-7.013-0.442-10.313-1.275l0.29 0.062-112.887 28.386c-16.351 2.173-29.501 40.822-6.127 37.045l182.848-47.679c14.868-4.542 27.217-13.615 35.77-25.586l0.14-0.206 62.538-108.097c14.211-22.204 55.794-46.831 75.522-63.484zM559.114 292.753c24.853 7.88 46.255 20.456 64.154 36.802l-0.132-0.119c4.083-2.391 8.991-3.802 14.228-3.802 10.478 0 19.636 5.65 24.594 14.069l0.073 0.133 18.658 32.324c2.386 4.077 3.794 8.976 3.794 14.205 0 10.586-5.774 19.823-14.345 24.734l-0.139 0.073c2.644 11.272 4.159 24.214 4.159 37.51 0 12.861-1.418 25.391-4.106 37.443l0.214-1.14c8.563 5.018 14.222 14.175 14.222 24.654 0 5.231-1.41 10.133-3.871 14.345l0.073-0.135-18.673 32.354c-5.103 8.492-14.266 14.087-24.736 14.087-5.293 0-10.253-1.43-14.513-3.925l0.136 0.074c-17.705 16.326-39.014 29.036-62.573 36.79l-1.214 0.346c-0.013 15.704-12.737 28.431-28.439 28.448h-37.35c-15.703-0.017-28.428-12.745-28.44-28.448v-0.001c-24.774-8.099-46.083-20.81-63.907-37.244l0.119 0.108c-4.139 2.476-9.13 3.94-14.463 3.94-10.478 0-19.637-5.652-24.593-14.073l-0.073-0.134-18.658-32.324c-2.387-4.077-3.796-8.977-3.796-14.207 0-10.491 5.672-19.657 14.116-24.6l0.135-0.073c-2.455-11.137-3.861-23.928-3.861-37.049 0-13.066 1.394-25.806 4.043-38.079l-0.214 1.183c-8.562-5.018-14.221-14.175-14.221-24.654 0-5.231 1.41-10.133 3.871-14.345l-0.073 0.135 18.673-32.353c5.105-8.491 14.268-14.084 24.738-14.084 5.293 0 10.251 1.429 14.511 3.923l-0.136-0.074c17.705-16.326 39.013-29.038 62.573-36.791l1.215-0.346c0.013-15.704 12.737-28.431 28.439-28.448h37.349c15.713 0.021 28.442 12.764 28.442 28.48 0 0.102-0.001 0.203-0.002 0.305v-0.015zM527.111 295.987h-30.222c-0.261 12.655-8.747 23.259-20.316 26.701l-0.201 0.051c-21.564 6.255-40.088 17.244-55.117 31.817l0.033-0.032c-5.099 4.895-12.036 7.91-19.678 7.91-5.026 0-9.748-1.304-13.845-3.593l0.144 0.074-15.095 26.159c8.28 5.065 13.721 14.058 13.721 24.321 0 2.442-0.308 4.813-0.888 7.074l0.043-0.197c-2.487 9.524-3.915 20.458-3.915 31.726s1.428 22.202 4.113 32.631l-0.198-0.905c0.535 2.063 0.843 4.431 0.843 6.871 0 10.265-5.44 19.259-13.595 24.257l-0.124 0.071 15.095 26.167c3.955-2.214 8.678-3.518 13.706-3.518 7.644 0 14.585 3.014 19.698 7.919l-0.010-0.009c14.993 14.547 33.518 25.538 54.162 31.562l0.922 0.23c11.764 3.495 20.244 14.095 20.502 26.716v0.029h30.222c0.261-12.655 8.747-23.259 20.316-26.701l0.201-0.051c21.564-6.255 40.088-17.244 55.117-31.817l-0.033 0.032c5.099-4.895 12.036-7.91 19.678-7.91 5.026 0 9.748 1.304 13.845 3.593l-0.144-0.074 15.095-26.159c-8.28-5.065-13.721-14.057-13.721-24.321 0-2.442 0.308-4.813 0.888-7.075l-0.043 0.197c2.487-9.524 3.915-20.458 3.915-31.726s-1.428-22.202-4.113-32.631l0.198 0.905c-0.535-2.063-0.843-4.431-0.843-6.871 0-10.265 5.44-19.259 13.595-24.257l0.124-0.071-15.095-26.175c-3.957 2.225-8.687 3.536-13.722 3.536-7.641 0-14.577-3.018-19.681-7.928l0.009 0.009c-14.993-14.547-33.518-25.538-54.162-31.562l-0.922-0.23c-11.764-3.495-20.244-14.095-20.502-26.716v-0.029zM512 536.012c0 0 0 0 0 0-48.606 0-88.009-39.403-88.009-88.009s39.403-88.009 88.009-88.009c48.606 0 88.009 39.403 88.009 88.009v0c-0.060 48.582-39.427 87.95-88.003 88.009h-0.006zM512 391.997c-30.931 0-56.006 25.075-56.006 56.006s25.075 56.006 56.006 56.006c30.931 0 56.006-25.075 56.006-56.006 0 0 0 0 0 0v0c-0.039-30.915-25.090-55.967-56.002-56.006h-0.004z" />
<glyph unicode="&#xe91b;" glyph-name="map" d="M10.24 509.901c0-242.299 0.594-440.699 1.178-440.699 0.788 0 77.158-20.275 169.861-45.076l168.489-45.271 88.576 18.698c48.62 10.24 88.576 18.903 88.771 19.098s-5.509 6.892-12.79 14.766l-12.995 14.561-65.935-13.978c-36.219-7.68-66.529-13.978-67.318-13.978-0.983 0-1.577 182.067-1.577 404.49 0 375.552 0.195 404.685 3.348 405.862 6.298 2.365 285.010 61.020 286.587 60.232 0.788-0.389 1.382-59.638 1.382-131.676v-130.703h33.464v130.888c0 72.038 0.389 130.888 0.788 130.888 0.389 0 65.147-17.326 143.882-38.38 78.93-21.064 143.688-38.38 143.882-38.38 0.389 0 0.788-182.262 0.788-405.074v-405.279l-62.986 16.927-63.181 16.732-13.578-13.578c-7.475-7.475-13.384-13.783-12.995-14.172 0.594-0.594 183.839-49.797 185.416-49.797 0.389 0 0.594 198.205 0.389 440.31l-0.594 440.31-167.301 44.882c-91.924 24.607-169.083 44.882-171.244 44.882s-75.981-15.155-163.963-33.659l-159.826-33.853-145.265 38.779c-79.718 21.248-156.283 41.523-170.066 45.261l-25.19 6.697v-440.709zM189.358 867.543l142.705-38.185 0.594-404.685c0.389-323.195 0-404.685-1.966-404.685-1.372 0-66.335 17.121-144.282 37.99l-141.722 38.185-0.594 404.685c-0.195 222.812 0.195 404.879 0.983 404.879 0.983-0.195 65.741-17.316 144.282-38.185zM653.087 578.796c-123.412-12.995-219.658-119.276-219.658-242.893 0-19.292 0.983-27.945 4.721-42.516 12.012-45.66 39.762-98.611 87.388-165.54 36.413-51.569 91.136-117.309 134.042-161.004l20.859-21.453 26.962 28.938c117.125 125.778 195.666 244.070 215.347 324.178 4.925 20.275 4.526 57.283-0.983 83.651-22.436 107.080-109.834 185.61-218.88 196.833-22.047 2.171-27.351 2.171-49.797-0.195zM732.805 537.068c77.947-20.47 136.991-83.261 153.528-163.174 6.298-30.904 4.731-58.655-4.721-86.804-12.012-35.625-38.584-83.845-72.233-131.287-30.505-43.11-82.278-106.875-117.903-145.654l-11.807-12.79-9.052 9.841c-99.994 109.834-171.633 214.149-194.079 282.45-13.783 42.322-8.468 91.136 15.155 137.984 29.522 59.044 85.023 100.577 150.958 113.172 22.641 4.332 66.734 2.365 90.153-3.738zM662.538 482.54c-51.18-5.315-96.645-37.99-118.886-85.617-9.841-20.869-13.783-39.567-13.783-64.369 0-39.567 13.384-73.216 39.956-101.56 29.327-31.099 65.352-46.449 108.646-46.449 28.15 0 46.060 4.332 70.666 17.121 20.275 10.435 48.22 37.396 59.044 56.689 59.648 108.063-23.808 236.585-145.644 224.184zM704.86 444.16c19.681-4.721 38.574-15.544 54.323-31.293 21.842-22.047 32.481-48.026 32.481-78.93 0-32.082-10.435-57.078-33.27-79.718-24.207-24.013-46.848-33.464-79.913-33.464-32.082 0-56.095 9.841-78.735 32.276-45.466 44.687-45.865 115.937-1.178 160.42 28.344 28.355 67.901 39.762 106.291 30.71z" />
<glyph unicode="&#xe91c;" glyph-name="minus" d="M0 481.758h1024v-67.516h-1024v67.516z" />
<glyph unicode="&#xe91d;" glyph-name="mobile" d="M960 448c0 46.152-28.837 85.748-69.776 101.328 9.497 11.694 16.588 25.3 20.604 40.289 7.508 28.008 3.656 57.266-10.844 82.383s-37.914 43.078-65.93 50.586c-14.945 4.017-30.226 4.688-45.057 2.335 6.895 43.348-13.086 88.146-53.006 111.017-39.97 23.045-88.703 17.876-122.69-9.769-15.646 40.767-55.095 69.831-101.302 69.831-46.205 0-85.652-29.063-101.3-69.826-33.983 27.647-82.715 32.818-122.653 9.787-39.955-22.893-59.941-67.7-53.043-111.053-14.833 2.353-30.114 1.683-45.059-2.322-28.016-7.508-51.43-25.469-65.93-50.586s-18.352-54.375-10.844-82.383c4.017-14.989 11.107-28.595 20.604-40.289-40.939-15.58-69.776-55.176-69.776-101.328s28.837-85.748 69.776-101.328c-9.497-11.694-16.588-25.3-20.604-40.289-7.508-28.008-3.656-57.266 10.844-82.383s37.914-43.078 65.93-50.586c9.352-2.508 18.844-3.742 28.273-3.742 5.642 0 11.236 0.589 16.791 1.47-6.923-43.366 13.060-88.197 52.998-111.079 17.094-9.859 35.797-14.57 54.266-14.57 24.729 0 48.925 8.623 68.38 24.461 15.614-40.829 55.094-69.953 101.347-69.953s85.731 29.123 101.346 69.952c19.459-15.845 43.656-24.468 68.389-24.468 18.453 0 37.148 4.711 54.219 14.555 39.969 22.9 59.958 67.731 53.037 111.099 5.554-0.881 11.148-1.468 16.791-1.466 9.43 0 18.922 1.234 28.273 3.742 28.016 7.508 51.43 25.469 65.93 50.586s18.352 54.375 10.844 82.383c-4.017 14.989-11.107 28.595-20.604 40.289 40.939 15.58 69.776 55.176 69.776 101.328zM805.828 694.32c6.656 0 13.352-0.875 19.945-2.648 19.758-5.289 36.266-17.961 46.492-35.672s12.945-38.344 7.648-58.102c-5.289-19.758-17.961-36.266-35.672-46.492-21.203-12.242-79.586-33.688-132.695-46.102-77.547-18.109-102.453-8.313-105.516-3.016-3.063 5.305 0.914 31.789 55.375 89.867 37.305 39.797 85.063 79.633 106.266 91.867 11.797 6.813 24.891 10.297 38.156 10.297zM512 371.43c-42.219 0-76.57 34.352-76.57 76.57s34.352 76.57 76.57 76.57 76.57-34.352 76.57-76.57-34.352-76.57-76.57-76.57zM620.57 787.43c0 0.013-0.002 0.024-0.002 0.037 22.903 30.936 65.545 40.303 99.479 20.729 33.797-19.367 47.082-60.954 31.84-96.343-0.070-0.040-0.145-0.069-0.215-0.11-23.594-13.625-72.547-53.891-113.617-97.695-30.149-32.162-49.323-59.003-58.444-81.243-8.473 6.77-17.981 12.256-28.241 16.268 45.319 58.51 69.201 204.362 69.201 238.358zM512 864c42.219 0 76.57-34.352 76.57-76.57 0-65.18-46.969-230.859-76.57-230.859s-76.57 165.68-76.57 230.859c0 42.219 34.352 76.57 76.57 76.57zM303.992 808.219c33.91 19.544 76.55 10.17 99.439-20.751 0-0.013-0.002-0.025-0.002-0.038 0-33.996 23.882-179.849 69.201-238.358-10.26-4.012-19.769-9.498-28.241-16.268-9.121 22.24-28.295 49.081-58.444 81.243-41.070 43.805-90.023 84.070-113.617 97.695-0.070 0.041-0.145 0.070-0.215 0.11-15.242 35.389-1.956 76.977 31.879 96.366zM151.734 656c10.227 17.711 26.734 30.383 46.492 35.672 6.602 1.773 13.289 2.648 19.945 2.648 13.266 0 26.359-3.484 38.156-10.297 21.203-12.234 68.961-52.070 106.266-91.867 54.461-58.078 58.438-84.563 55.375-89.867-3.070-5.313-28-15.094-105.516 3.016-53.109 12.414-111.492 33.859-132.695 46.102-17.711 10.227-30.383 26.734-35.672 46.492-5.297 19.758-2.578 40.391 7.648 58.102zM96 448c0 39.154 29.476 71.397 67.777 75.677 26.946-15.54 144.785-60.567 220.84-60.56 1.974 0 3.846 0.107 5.761 0.17 9.256-6.841 12.981-12.448 12.981-15.287 0-2.834-3.713-8.426-12.931-15.249-75.705 2.45-199.008-44.483-226.652-60.428-38.302 4.279-67.776 36.522-67.776 75.677zM198.227 204.328c-19.758 5.289-36.266 17.961-46.492 35.672s-12.945 38.344-7.648 58.102c5.289 19.758 17.961 36.266 35.672 46.492 21.203 12.242 79.586 33.688 132.695 46.102 77.531 18.109 102.445 8.313 105.516 3.016 3.063-5.305-0.914-31.789-55.375-89.867-37.305-39.797-85.063-79.633-106.266-91.867-17.719-10.227-38.375-12.953-58.102-7.648zM403.43 108.57c0-0.013 0.002-0.026 0.002-0.039-22.896-30.939-65.545-40.285-99.479-20.727-33.799 19.368-47.084 60.959-31.838 96.348 0.069 0.040 0.144 0.065 0.213 0.105 23.594 13.625 72.547 53.891 113.617 97.695 30.149 32.162 49.323 59.003 58.444 81.243 8.473-6.77 17.981-12.256 28.241-16.268-45.319-58.51-69.201-204.362-69.201-238.358zM512 32c-42.219 0-76.57 34.352-76.57 76.57 0 65.18 46.969 230.859 76.57 230.859s76.57-165.68 76.57-230.859c0-42.219-34.352-76.57-76.57-76.57zM720.008 87.781c-33.91-19.544-76.544-10.177-99.439 20.752 0 0.013 0.002 0.024 0.002 0.037 0 33.996-23.882 179.849-69.201 238.358 10.26 4.012 19.769 9.498 28.241 16.268 9.121-22.24 28.295-49.081 58.444-81.243 41.070-43.805 90.023-84.070 113.617-97.695 0.069-0.040 0.144-0.065 0.213-0.105 15.246-35.389 1.959-76.98-31.877-96.371zM872.266 240c-10.227-17.711-26.734-30.383-46.492-35.672-19.75-5.305-40.375-2.578-58.102 7.648-21.203 12.234-68.961 52.070-106.266 91.867-54.461 58.078-58.438 84.563-55.375 89.867 1.734 3.008 10.477 7.445 31.813 7.445 16.344 0 40.078-2.602 73.703-10.461 53.109-12.414 111.492-33.859 132.695-46.102 17.711-10.227 30.383-26.734 35.672-46.492 5.297-19.758 2.578-40.391-7.648-58.102zM860.224 372.323c-29.479 17-167.721 69.244-241.036 59.229 0.823 5.379 1.383 10.843 1.383 16.448 0 5.578-0.555 11.016-1.37 16.369 6.289-0.854 13.054-1.252 20.19-1.252 76.047 0 193.894 45.020 220.832 60.56 38.302-4.279 67.777-36.522 67.777-75.677s-29.475-71.397-67.776-75.677z" />
<glyph unicode="&#xe91e;" glyph-name="paint" d="M40.663 935.127c-0.205-7.946-0.205-81.951-0.205-164.116s0-157.85 0.205-168.294v-18.821h47.452l33.034-34.499c17.981-19.026 33.659-34.499 34.499-34.499 1.044 0 4.393 3.348 7.526 7.322l5.437 7.322-35.748 37.007-35.758 36.792v55.818l57.078 0.42 56.863 0.625 0.625 20.275 0.625 20.49-57.078 0.42-57.078 0.625-0.625 93.665-0.42 93.45h317.798v-188.16h-122.921l-0.84-18.186c-0.42-10.24-0.42-19.651 0-20.91 0.625-2.089 15.053-2.714 62.3-2.714h61.46v-112.906h41.81l0.205 17.357c0 9.411 0 34.703 0 56.453l-0.205 39.096h219.525v41.82l-218.47 1.044-0.42 93.665-0.205 93.45h467.886v-554.035l-467.261 1.044-0.42 40.765c-0.205 22.374-0.42 48.087-0.42 57.078l-0.205 16.312-40.765-1.249v-192.358l40.765-1.249v14.213c0 7.731 0.625 16.302 1.26 19.026l1.26 4.598h465.797l-0.42-143.626-0.625-143.841h-466.237l-0.42 59.587c-0.205 32.819-0.42 67.318-0.42 76.933l-0.205 17.142h-164.741l-0.84-19.231c-0.42-10.66-0.625-20.070-0.205-21.115 0.625-0.84 28.641-1.464 62.515-1.464h61.46v-112.466l-316.733 0.625-0.625 55.818-0.42 56.033 56.863 0.42 57.078 0.625 0.625 20.49 0.625 20.275h-115.2v307.333h-28.221c-23.624 0-28.221-0.42-28.221-3.133-0.205-1.669-0.205-117.494-0.205-257.147s0-255.478 0.205-257.147c0-2.714 53.729-3.133 471.45-3.133h471.45v1003.5h-942.909v-14.633z" />
<glyph unicode="&#xe91f;" glyph-name="phone" d="M422.694 958.973c-15.14 4.269-32.050-5.216-36.422-20.322l-33.014-115.696c-4.506-15.645 4.608-32.033 20.456-36.59 2.6-0.725 5.265-1.080 7.949-1.080 3.106 0 6.177 0.489 9.266 1.504 9.301 3.105 16.455 10.549 19.139 19.95l33.030 115.747c4.439 15.609-4.675 31.981-20.405 36.487zM425.158 722.789c5.553-7.123 14.279-11.375 23.326-11.375 3.122 0 6.195 0.489 9.383 1.537 3.106 1.080 6.026 2.616 8.777 4.725l183.849 143.51c12.81 10.041 15.071 28.624 5.044 41.468-9.485 12.085-29.131 14.616-41.435 5.080l-183.847-143.51c-12.81-10.027-15.089-28.593-5.097-41.435zM624.888 709.506l-124.81-32.084c-14.667-4.843-23.156-20.387-19.291-35.427 3.375-13.029 15.121-22.143 28.591-22.143 2.464 0 4.928 0.321 7.323 0.928l124.81 32.052c14.736 4.845 23.241 20.423 19.36 35.375-3.932 15.442-20.186 25.282-35.983 21.298zM287.707 800.711c-28.504-5.332-56.269-17.417-80.658-36.59-55.071-43.325-79.020-111.543-68.606-176.134 8.49-92.303 114.85-279.646 208.641-399.984 0.455-0.591 0.877-1.114 1.333-1.737 0.422-0.489 0.912-1.080 1.317-1.656 55.644-70.092 116.202-128.051 174.429-170.195l59.9-38.092c19.815-10.802 39.020-19.544 57.3-25.756 60.322-25.334 132.269-18.075 187.308 25.266 24.404 19.189 42.684 43.275 54.564 69.789 6.938 12 6.363 27.56-2.801 39.19l-163.714 208.084c-8.59 10.92-22.21 15.172-34.869 12.505l-0.102 0.118c-29.35-5.131-58.008-17.385-83.206-37.199-16.912-13.299-30.97-28.977-41.923-46.144-22.48 23.411-44.659 48.777-66.213 75.797-21.266 27.341-90.446 116.388-107.948 143.747 19.323 6.617 37.855 16.524 54.783 29.823 25.183 19.814 43.867 44.724 55.697 72.15l-0.018 0.069c5.57 11.661 4.508 26.058-4.015 36.911l-163.714 208.055c-9.164 11.663-24.168 15.932-37.485 11.982z" />
<glyph unicode="&#xe920;" glyph-name="phone-call" d="M622.211 804.133c1.886 6.889 8.090 11.867 15.457 11.867 1.47 0 2.894-0.198 4.246-0.569l-0.112 0.026c116.107-31.955 205.701-121.55 237.1-235.292l0.557-2.364c0.345-1.24 0.543-2.663 0.543-4.133 0-8.837-7.163-16-16-16-7.367 0-13.571 4.979-15.431 11.755l-0.026 0.112c-28.908 105.043-109.965 186.1-212.869 214.504l-2.139 0.504c-6.888 1.886-11.867 8.091-11.867 15.457 0 1.47 0.198 2.893 0.569 4.245l-0.026-0.112zM600.398 660.875c60.812-16.737 107.739-63.664 124.185-123.238l0.292-1.238c1.886-6.888 8.090-11.867 15.457-11.867 8.837 0 16 7.163 16 16 0 1.47-0.198 2.893-0.569 4.245l0.026-0.112c-19.782 71.878-75.247 127.343-145.661 146.78l-1.464 0.345c-1.24 0.345-2.663 0.543-4.133 0.543-8.837 0-16-7.163-16-16 0-7.367 4.979-13.571 11.755-15.431l0.112-0.026zM910.352 261.688c-13.622-102.947-100.787-181.58-206.34-181.688h-0.012c-308.785 0-560 251.215-560 560 0.107 105.563 78.738 192.728 180.623 206.237l1.060 0.115c1.719 0.218 3.708 0.342 5.726 0.342 19.696 0 36.626-11.844 44.056-28.799l0.121-0.309 80.363-187.508c2.46-5.577 3.892-12.079 3.892-18.916 0-9.782-2.931-18.879-7.964-26.46l0.11 0.177-66.543-101.676c-1.663-2.458-2.655-5.489-2.655-8.752 0-2.429 0.55-4.73 1.532-6.785l-0.041 0.095h0.004c32.281-64.861 83.748-116.112 146.902-147.276l1.887-0.842c1.941-0.922 4.218-1.46 6.62-1.46 3.311 0 6.382 1.022 8.917 2.768l-0.053-0.035 100.141 66.777c7.474 5.063 16.691 8.083 26.614 8.083 6.839 0 13.344-1.435 19.228-4.020l-0.307 0.12 187.352-80.293c17.263-7.55 29.107-24.479 29.107-44.174 0-2.017-0.124-4.006-0.366-5.958l0.024 0.234zM868.977 282.172l-187.344 80.293c-1.86 0.821-4.028 1.299-6.308 1.299-3.309 0-6.382-1.006-8.932-2.729l0.056 0.036-100.141-66.777c-7.477-5.068-16.699-8.092-26.628-8.092-7.457 0-14.515 1.705-20.806 4.747l0.286-0.125c-71.528 35.202-128.129 91.565-162.705 160.842l-0.927 2.052 0.004-0.004c-2.978 6.060-4.72 13.191-4.72 20.728 0 9.783 2.934 18.88 7.971 26.46l-0.11-0.176 66.543 101.676c1.641 2.47 2.618 5.503 2.618 8.765 0 2.28-0.478 4.449-1.338 6.412l0.040-0.103-80.363 187.5c-2.478 5.731-8.057 9.682-14.566 9.746h-0.008c-0.003 0-0.006 0-0.010 0-0.667 0-1.324-0.044-1.968-0.129l0.076 0.008c-87.096-11.533-153.617-85.287-153.695-174.593v-0.008c0-291.141 236.859-528 528-528 89.315 0.078 163.070 66.601 174.504 152.802l0.097 0.898c0.065 0.542 0.103 1.169 0.103 1.805 0 6.557-3.963 12.187-9.624 14.628l-0.103 0.040z" />
<glyph unicode="&#xe921;" glyph-name="phoned" d="M819.63 940.667c-32.85-9.247-67.461-37.366-100.506-82.022-35.994-48.384-50.156-81.234-49.961-115.651 0-33.434 12.001-55.859 50.739-95.191l23.009-23.409-1.178-11.602c-3.144-35.205-49.961-99.328-134.144-183.501-88.115-87.921-153.016-134.728-187.249-134.728-8.458 0-9.441 0.788-34.816 25.17-27.924 26.552-41.503 35.994-61.952 43.069-15.739 5.304-38.349 5.898-57.231 1.372-32.85-7.67-85.555-40.12-123.515-76.308-56.054-53.105-64.317-106.609-25.375-163.441l6.687-9.636-16.722-11.991c-21.637-15.34-49.766-42.875-65.106-63.724-12.196-16.517-27.924-46.223-31.273-59.197-3.932-15.34 6.687-28.918 21.043-26.747 6.492 0.983 15.933 7.864 15.933 11.602 0 0.983 3.932 10.035 8.458 19.866 15.933 33.239 44.452 65.3 79.462 89.098l16.128 11.008 22.221-21.432c24.586-23.603 34.417-29.901 57.631-36.588 20.46-5.704 64.512-6.093 94.413-0.788 144.169 25.958 329.452 146.524 474.399 308.787 132.393 148.101 213.033 308.593 213.033 423.26 0 50.35-7.076 67.86-42.68 106.015-39.137 42.086-65.106 62.546-92.447 73.165-16.712 6.298-43.459 7.875-59.003 3.543zM872.735 895.427c16.916-8.458 40.325-28.324 67.267-57.037 32.061-34.417 33.434-37.366 33.239-81.623 0-28.324-0.788-35.4-5.509-55.665-35.011-150.467-163.441-332.001-332.595-470.467-136.1-111.514-285.583-178.196-375.859-167.967-27.73 2.949-35.994 8.069-69.827 41.697-43.858 43.469-55.46 61.757-55.665 87.921 0 12.984 0.788 16.323 6.687 28.324 12.001 23.992 43.469 53.893 86.538 81.623 26.747 17.306 46.029 24.392 65.884 24.586 14.356 0.195 16.916-0.389 28.518-6.687 8.847-4.721 20.849-14.756 38.349-31.662 14.162-13.773 29.501-26.747 34.222-29.307 45.435-23.009 121.549 21.443 240.937 140.82 76.708 76.708 121.354 133.939 139.448 178.79 5.704 14.162 6.298 17.705 6.298 36.383 0 16.517-0.788 22.026-3.738 27.341-1.966 3.738-15.34 19.077-29.696 33.833-33.044 34.222-37.366 42.086-37.366 67.656 0 14.551 0.983 19.866 5.11 29.901 21.832 52.122 74.742 112.896 109.558 125.88 12.206 4.311 34.826 2.345 48.2-4.342z" />
<glyph unicode="&#xe922;" glyph-name="plus" d="M1024 481.758h-478.242v478.242h-67.516v-478.242h-478.242v-67.516h478.242v-478.242h67.516v478.242h478.242z" />
<glyph unicode="&#xe923;" glyph-name="poster" d="M675.867 284.102c0 11.086-8.992 20.078-20.078 20.078h-403.602c-11.086 0-20.078-8.992-20.078-20.078s8.992-20.078 20.078-20.078h403.602c11.086 0 20.078 8.992 20.078 20.078zM915.93 112.531h-86.641v323.344c0 11.086-8.992 20.078-20.078 20.078s-20.078-8.992-20.078-20.078v-323.344h-410.383c-11.086 0-20.078-8.992-20.078-20.078 0-64.109-52.156-116.273-116.25-116.297-64.109 0.023-116.266 52.188-116.266 116.297v653h22.68v-27.836c0-11.086 8.992-20.078 20.078-20.078h112.398c11.086 0 20.078 8.992 20.078 20.078v27.836h312.508v-27.836c0-11.086 8.992-20.078 20.086-20.078h112.391c11.086 0 20.078 8.992 20.078 20.078v27.836h22.68v-148.953c0-11.086 8.992-20.078 20.078-20.078s20.078 8.992 20.078 20.078v169.031c0 11.086-8.992 20.078-20.078 20.078h-42.758v27.836c0 11.086-8.992 20.078-20.078 20.078h-36.117v106.398c0 11.086-8.992 20.078-20.078 20.078s-20.078-8.992-20.078-20.078v-106.398h-36.117c-11.086 0-20.078-8.992-20.078-20.078v-27.836h-312.516v27.836c0 11.086-8.992 20.078-20.078 20.078h-36.117v106.398c0 11.086-8.992 20.078-20.078 20.078-11.094 0-20.086-8.992-20.086-20.078v-106.398h-36.117c-11.086 0-20.078-8.992-20.078-20.078v-27.836h-42.758c-11.086 0-20.078-8.992-20.078-20.078v-673.078c0-86.18 70.070-156.352 156.25-156.445 0.039 0 0.078-0.008 0.125-0.008h537.172c86.273 0 156.461 70.188 156.461 156.453 0 11.086-8.992 20.078-20.078 20.078zM654.055 793.367h72.242v-55.672h-72.242zM188.992 793.367h72.242v-55.672h-72.242zM779.547-23.844h-432.547c27.148 24.43 45.734 58.219 50.625 96.219h496.484c-9.539-54.594-57.281-96.219-114.563-96.219zM252.188 354.586h403.602c7.242 0 13.93 3.898 17.484 10.211 3.563 6.313 3.445 14.047-0.297 20.25l-171 283.055c-3.641 6.016-10.156 9.695-17.188 9.695s-13.555-3.68-17.188-9.695l-68.148-112.805-13.617 22.531c-3.633 6.016-10.156 9.695-17.188 9.695s-13.547-3.68-17.188-9.695l-116.461-192.781c-3.75-6.203-3.859-13.938-0.305-20.25 3.563-6.313 10.25-10.211 17.492-10.211zM484.789 618.883l135.406-224.148h-123.75l-73.539 121.727zM368.656 528.617l80.875-133.883h-161.758zM318.242 231.945c-11.094 0-20.078-8.992-20.078-20.078s8.984-20.078 20.078-20.078h191.031c11.086 0 20.078 8.992 20.078 20.078s-8.992 20.078-20.078 20.078zM606.438 223.008c-4.773 7.141-13.938 10.594-22.219 8.156-7.961-2.344-13.773-9.367-14.492-17.656-0.719-8.336 4.109-16.5 11.727-19.914 7.563-3.391 16.586-1.789 22.469 4.078 6.703 6.68 7.766 17.484 2.516 25.336zM827.836 523.867c-3.211 7.773-11.219 12.82-19.617 12.367-8.352-0.453-15.688-6.219-18.125-14.219-2.406-7.891 0.422-16.734 6.984-21.75 6.75-5.172 16.289-5.492 23.375-0.773 7.859 5.234 10.992 15.648 7.383 24.375z" />
<glyph unicode="&#xe924;" glyph-name="quote" d="M512-64c282.304 0 512 229.696 512 512s-229.696 512-512 512-512-229.696-512-512 229.696-512 512-512zM512 928c264.672 0 480-215.328 480-480s-215.328-480-480-480-480 215.328-480 480 215.328 480 480 480zM343.488 523.328c16.224-5.28 33.088-2.848 48.992 7.104 7.456 4.672 9.76 14.56 5.056 22.048-4.672 7.456-14.528 9.76-22.048 5.056-7.712-4.8-15.136-6.016-22.016-3.808-7.328 2.4-14.24 8.576-20.032 17.856-5.184 8.256-6.848 18.048-4.672 27.552 2.208 9.536 7.968 17.6 16.256 22.784 19.776 12.48 45.504 5.344 62.176-7.168 28.192-21.088 40.8-57.76 40.8-118.752 0-90.048-40.96-202.016-119.264-241.728-7.872-4-11.040-13.632-7.040-21.536 2.88-5.536 8.48-8.736 14.304-8.736 2.432 0 4.896 0.576 7.264 1.728 93.92 47.648 136.736 173.536 136.736 270.272 0 71.104-17.024 116.96-53.6 144.384-30.464 22.944-70.016 26.368-98.336 8.672-15.52-9.696-26.336-24.864-30.432-42.72-4.128-17.856-1.024-36.224 8.672-51.712 9.824-15.68 22.656-26.496 37.184-31.296zM599.488 523.328c16.192-5.28 33.088-2.848 48.992 7.104 7.456 4.672 9.76 14.56 5.056 22.048-4.672 7.456-14.528 9.76-22.048 5.056-7.68-4.8-15.136-6.016-22.016-3.808-7.328 2.4-14.24 8.576-20.032 17.856-5.184 8.256-6.848 18.048-4.672 27.552 2.208 9.536 7.968 17.6 16.256 22.784 19.808 12.48 45.536 5.344 62.176-7.168 28.192-21.088 40.8-57.76 40.8-118.752 0-90.048-40.96-202.016-119.264-241.728-7.872-4-11.040-13.632-7.040-21.536 2.88-5.536 8.48-8.736 14.304-8.736 2.432 0 4.896 0.576 7.264 1.728 93.92 47.648 136.736 173.536 136.736 270.272 0 71.104-17.024 116.96-53.6 144.384-30.464 22.944-70.016 26.368-98.336 8.672-15.52-9.696-26.336-24.864-30.432-42.72-4.128-17.856-1.024-36.224 8.672-51.712 9.824-15.68 22.656-26.496 37.184-31.296z" />
<glyph unicode="&#xe925;" glyph-name="right-arrow" d="M1024 456.383c0 28.475-10.889 55.218-31.026 75.356l-295.295 295.432c-22.256 22.256-58.339 22.256-80.55 0-22.279-22.256-22.233-58.499 0-80.777l240.874-240.783h-801.418c-31.482-0.023-56.585-25.832-56.585-57.337 0-0.068 0-0.569 0-0.638 0-31.482 25.103-57.474 56.585-57.474h801.441l-240.829-240.646c-22.279-22.279-22.279-58.408 0-80.663 22.256-22.301 58.339-22.279 80.595 0.023l295.181 295.455c20.16 20.092 31.026 46.904 31.026 75.379 0 2.802 0 13.873 0 16.675z" />
<glyph unicode="&#xe926;" glyph-name="search" d="M157.972 500.646c0 166.781 135.202 301.982 301.983 301.982 166.78 0 301.978-135.201 301.978-301.982s-135.198-301.982-301.978-301.982c-166.781 0-301.983 135.202-301.983 301.982zM459.955 875.267c-206.899 0-374.622-167.723-374.622-374.621 0-206.895 167.723-374.618 374.622-374.618 97.003 0 185.391 36.868 251.925 97.353l164.783-164.783c14.187-14.182 37.18-14.182 51.366 0 14.182 14.182 14.182 37.18 0 51.362l-167.309 167.309c46.396 62.37 73.852 139.669 73.852 223.377 0 206.898-167.723 374.621-374.618 374.621z" />
<glyph unicode="&#xe927;" glyph-name="search-1" d="M1011.094 9.345l-293.801 294.010c57.921 69.463 92.757 158.233 92.757 255.187 0 221.19-181.527 401.038-404.815 401.038s-405.235-180.058-405.235-401.248 181.527-401.038 404.815-401.038c94.856 0 182.156 32.528 251.409 86.881l294.85-294.85c17.208-17.208 42.811-17.208 60.019 0s17.208 42.811 0 60.019zM86.042 558.333c0 173.762 143.123 314.996 318.774 314.996s318.774-141.234 318.774-314.996-143.123-314.996-318.774-314.996-318.774 141.444-318.774 314.996z" />
<glyph unicode="&#xe928;" glyph-name="share" d="M792.719 322.407c-59.71 0-113.164-27.239-148.632-69.935l-230.717 130.992c7.175 20.19 11.118 41.899 11.118 64.523 0 22.619-3.943 44.328-11.118 64.518l230.699 131.024c35.463-42.71 88.927-69.958 148.641-69.958 106.512 0 193.167 86.687 193.167 193.244 0.009 106.525-86.646 193.185-193.158 193.185-106.525 0-193.19-86.66-193.19-193.181 0-22.624 3.939-44.337 11.118-64.532l-230.713-131.029c-35.463 42.688-88.913 69.917-148.609 69.917-106.539 0-193.217-86.66-193.217-193.185 0-106.521 86.678-193.181 193.217-193.181 59.696 0 113.141 27.23 148.605 69.913l230.717-130.997c-7.179-20.195-11.123-41.913-11.123-64.541 0-106.521 86.664-193.181 193.19-193.181 106.512 0 193.167 86.664 193.167 193.181 0.005 106.539-86.651 193.221-193.163 193.221zM792.719 892.399c69.237 0 125.566-56.334 125.566-125.58 0-69.282-56.33-125.643-125.566-125.643-69.25 0-125.589 56.361-125.589 125.643 0 69.246 56.339 125.58 125.589 125.58zM231.33 322.407c-69.264 0-125.616 56.339-125.616 125.58 0 69.25 56.352 125.584 125.616 125.584 69.237 0 125.562-56.334 125.562-125.584 0-69.241-56.33-125.58-125.562-125.58zM792.719 3.601c-69.25 0-125.589 56.339-125.589 125.58 0 69.268 56.339 125.625 125.589 125.625 69.237 0 125.566-56.357 125.566-125.625 0-69.241-56.33-125.58-125.566-125.58z" />
<glyph unicode="&#xe929;" glyph-name="star" d="M512.010 934.945l158.199-320.581 353.791-51.421-256.005-249.522 60.432-352.365-316.418 166.355-316.437-166.355 60.432 352.365-256.005 249.522 353.791 51.421z" />
<glyph unicode="&#xe92a;" glyph-name="star-1" d="M1011.836 525.179c11.032 10.754 14.926 26.536 10.168 41.186-4.762 14.65-17.188 25.128-32.434 27.342l-304.717 44.276c-0.236 0.034-0.444 0.184-0.552 0.402l-136.272 276.121c-6.818 13.814-20.626 22.398-36.028 22.398s-29.21-8.582-36.028-22.396l-136.272-276.121c-0.108-0.218-0.316-0.368-0.554-0.404l-304.719-44.278c-15.244-2.214-27.672-12.692-32.434-27.342-4.76-14.654-0.866-30.434 10.168-41.186l220.498-214.93c0.174-0.17 0.252-0.412 0.21-0.652l-52.052-303.485c-4.138-24.12 14.968-47.010 39.558-47.010 6.384 0 12.802 1.54 18.734 4.656l272.551 143.29c0.214 0.114 0.466 0.114 0.682-0.002l272.547-143.284c13.636-7.172 29.848-6 42.312 3.058 12.464 9.056 18.588 24.114 15.982 39.294l-52.052 303.487c-0.042 0.24 0.036 0.482 0.21 0.65l220.494 214.93zM752.257 302.927l52.050-303.487c0.056-0.318 0.078-0.448-0.292-0.718-0.368-0.266-0.486-0.208-0.774-0.056l-272.545 143.284c-11.706 6.158-25.688 6.158-37.394 0.002l-272.547-143.288c-0.286-0.152-0.404-0.21-0.772 0.056-0.368 0.27-0.348 0.4-0.292 0.72l52.050 303.487c2.238 13.036-2.082 26.33-11.554 35.562l-220.496 214.932c-0.232 0.226-0.328 0.318-0.186 0.754 0.142 0.434 0.274 0.452 0.594 0.5l304.717 44.278c13.086 1.902 24.396 10.116 30.25 21.976l136.272 276.121c0.142 0.29 0.202 0.41 0.66 0.41s0.518-0.12 0.66-0.41l136.272-276.129c5.854-11.858 17.162-20.076 30.248-21.976l304.717-44.276c0.32-0.048 0.452-0.066 0.594-0.5s0.044-0.528-0.186-0.754l-220.49-214.93c-9.474-9.232-13.794-22.526-11.556-35.558z" />
<glyph unicode="&#xe92b;" glyph-name="swastika" d="M616.99 400.31c-30.396 0-55.122-24.728-55.122-55.122v-324.28c0-26.162-21.282-47.444-47.444-47.444h-475.452c8.986 55.248 57.036 97.56 114.782 97.56h259.042c28.404 0 51.512 23.108 51.512 51.512v222.652c0 30.392-24.726 55.122-55.122 55.122h-324.278c-26.162 0-47.444 21.282-47.444 47.444v473.274c55.248-8.984 97.56-57.034 97.56-114.782 0-10.344 8.384-18.732 18.732-18.732s18.732 8.386 18.732 18.732c-0.002 84.782-68.976 153.754-153.756 153.754-10.348 0-18.732-8.386-18.732-18.732v-493.516c0-46.82 38.090-84.906 84.908-84.906h324.28c9.736 0 17.658-7.922 17.658-17.658v-222.652c0-7.748-6.302-14.048-14.048-14.048h-259.044c-84.782-0.002-153.754-68.976-153.754-153.756 0-10.346 8.384-18.732 18.732-18.732h495.694c46.816 0 84.906 38.088 84.906 84.908v324.28c0 9.736 7.922 17.658 17.658 17.658 10.348 0 18.732 8.386 18.732 18.732s-8.384 18.732-18.732 18.732zM939.092 535.332h-322.102c-9.736 0-17.658 7.922-17.658 17.658v220.474c0 7.748 6.302 14.048 14.052 14.048h256.864c84.78 0 153.752 68.976 153.752 153.754 0 10.348-8.384 18.734-18.732 18.734h-493.516c-46.816 0-84.906-38.088-84.906-84.908v-322.102c0-9.736-7.922-17.658-17.658-17.658h-222.65c-7.75 0-14.052 6.302-14.052 14.048v152.328c0 10.344-8.384 18.732-18.732 18.732s-18.732-8.386-18.732-18.732v-152.328c0-28.404 23.11-51.512 51.514-51.512h222.65c30.396 0 55.122 24.728 55.122 55.122v322.102c0 26.162 21.282 47.444 47.444 47.444h473.276c-8.986-55.248-57.036-97.56-114.782-97.56h-256.862c-28.404 0-51.514-23.108-51.514-51.512v-220.474c0-30.392 24.726-55.122 55.122-55.122h322.104c26.162 0 47.444-21.282 47.444-47.444v-475.454c-55.248 8.984-97.56 57.034-97.56 114.782v259.044c0 28.404-23.108 51.512-51.512 51.512h-135.452c-10.348 0-18.732-8.386-18.732-18.732 0-10.344 8.384-18.732 18.732-18.732h135.452c7.748 0 14.048-6.302 14.048-14.048v-259.042c0-84.78 68.972-153.754 153.754-153.754 10.348 0 18.732 8.386 18.732 18.732v495.694c-0.002 46.816-38.092 84.906-84.91 84.906zM292.862 742.2c-37.198 0-67.462-30.262-67.462-67.46s30.262-67.46 67.462-67.46c37.198 0 67.46 30.262 67.46 67.46s-30.262 67.46-67.46 67.46zM292.862 644.748c-16.542 0-29.998 13.456-29.998 29.996 0 16.538 13.456 29.996 29.998 29.996 16.538 0 29.996-13.456 29.996-29.996s-13.458-29.996-29.996-29.996zM728.418 742.202c-37.198 0-67.46-30.264-67.46-67.46 0-37.198 30.26-67.46 67.46-67.46s67.462 30.262 67.462 67.46-30.262 67.46-67.462 67.46zM728.416 644.748c-16.538 0-29.996 13.456-29.996 29.996 0 16.538 13.456 29.996 29.996 29.996 16.542 0 29.998-13.456 29.998-29.996 0-16.542-13.456-29.996-29.998-29.996zM292.862 302.29c-37.198 0-67.462-30.262-67.462-67.46 0-37.196 30.262-67.46 67.462-67.46 37.198 0 67.46 30.26 67.46 67.46-0.002 37.2-30.262 67.46-67.46 67.46zM292.862 204.834c-16.542 0-29.998 13.454-29.998 29.996s13.456 29.996 29.998 29.996c16.538 0 29.996-13.456 29.996-29.996 0-16.538-13.458-29.996-29.996-29.996zM728.416 302.29c-37.198 0-67.46-30.262-67.46-67.46 0-37.196 30.26-67.46 67.46-67.46s67.462 30.262 67.462 67.46c0 37.196-30.264 67.46-67.462 67.46zM728.416 204.834c-16.538 0-29.996 13.456-29.996 29.996 0 16.538 13.456 29.996 29.996 29.996 16.542 0 29.998-13.456 29.998-29.996 0-16.538-13.456-29.996-29.998-29.996z" />
<glyph unicode="&#xe92c;" glyph-name="up-arrow" d="M999.613 179.819l-487.604 487.622-487.639-487.622-24.37 24.37 512.009 511.991 511.991-511.991z" />
<glyph unicode="&#xe92d;" glyph-name="user1" d="M1024 448c0 282.307-229.693 512-512 512s-512-229.693-512-512c0-149.113 64.121-283.518 166.186-377.167l-0.484-0.428 16.607-14.001c1.080-0.912 2.253-1.657 3.333-2.551 8.825-7.317 17.967-14.262 27.276-20.983 3.016-2.178 6.032-4.357 9.104-6.479 9.942-6.851 20.145-13.349 30.571-19.512 2.271-1.341 4.561-2.644 6.851-3.947 11.413-6.498 23.068-12.623 35.002-18.246 0.875-0.41 1.769-0.782 2.644-1.192 38.893-18.078 80.412-31.353 123.83-39.191 1.136-0.205 2.271-0.41 3.426-0.614 13.48-2.327 27.108-4.189 40.904-5.437 1.676-0.149 3.351-0.242 5.046-0.391 13.74-1.136 27.629-1.862 41.705-1.862 13.945 0 27.704 0.726 41.37 1.825 1.731 0.149 3.463 0.242 5.194 0.391 13.684 1.247 27.201 3.053 40.55 5.343 1.154 0.205 2.327 0.41 3.482 0.633 42.766 7.671 83.689 20.648 122.079 38.26 1.415 0.652 2.849 1.266 4.264 1.936 11.487 5.399 22.714 11.227 33.718 17.427 2.737 1.545 5.455 3.109 8.173 4.71 10.017 5.902 19.866 12.065 29.435 18.618 3.444 2.346 6.814 4.822 10.221 7.28 8.173 5.883 16.198 11.953 23.999 18.302 1.731 1.396 3.593 2.607 5.288 4.040l17.036 14.224-0.503 0.428c102.959 93.687 167.694 228.706 167.694 378.582zM37.236 448c0 261.79 212.973 474.764 474.764 474.764s474.764-212.973 474.764-474.764c0-141.070-61.905-267.897-159.912-354.918-5.474 3.779-10.985 7.168-16.626 9.998l-157.64 78.811c-14.15 7.075-22.938 21.299-22.938 37.106v55.054c3.649 4.506 7.503 9.607 11.487 15.211 20.406 28.821 36.771 60.881 48.705 95.381 23.589 11.208 38.819 34.704 38.819 61.235v66.001c0 16.142-5.921 31.8-16.514 44.106v86.891c0.968 9.663 4.394 64.195-35.058 109.177-34.313 39.173-89.851 59.001-165.087 59.001s-130.774-19.828-165.087-58.982c-39.452-44.982-36.026-99.514-35.058-109.177v-86.891c-10.575-12.307-16.514-27.965-16.514-44.106v-66.001c0-20.499 9.197-39.619 24.948-52.522 15.081-59.075 46.117-103.796 57.586-118.952v-53.881c0-15.192-8.285-29.156-21.634-36.454l-147.214-80.3c-4.692-2.551-9.346-5.53-14.001-8.862-96.796 86.984-157.789 213.029-157.789 353.075zM790.509 63.87c-6.516-4.729-13.144-9.309-19.866-13.684-3.091-2.011-6.163-4.022-9.309-5.976-8.788-5.437-17.725-10.612-26.847-15.453-2.011-1.061-4.040-2.067-6.070-3.109-20.964-10.743-42.654-19.977-64.94-27.48-0.782-0.261-1.564-0.54-2.365-0.801-11.674-3.873-23.496-7.317-35.449-10.277-0.037 0-0.074-0.019-0.112-0.019-12.065-2.979-24.278-5.455-36.566-7.485-0.335-0.056-0.67-0.13-1.005-0.186-11.562-1.88-23.217-3.24-34.909-4.264-2.067-0.186-4.133-0.317-6.218-0.465-11.562-0.875-23.18-1.434-34.853-1.434-11.804 0-23.571 0.577-35.281 1.452-2.029 0.149-4.059 0.279-6.070 0.465-11.804 1.043-23.552 2.439-35.188 4.338-0.521 0.093-1.043 0.186-1.564 0.279-24.613 4.115-48.835 10.166-72.425 18.078-0.726 0.242-1.471 0.503-2.197 0.745-11.711 3.984-23.291 8.397-34.667 13.275-0.074 0.037-0.168 0.074-0.242 0.112-10.761 4.636-21.318 9.775-31.744 15.192-1.359 0.707-2.737 1.378-4.077 2.104-9.514 5.083-18.823 10.575-28.002 16.31-2.718 1.713-5.418 3.444-8.099 5.194-8.453 5.53-16.794 11.283-24.911 17.371-0.838 0.633-1.638 1.303-2.476 1.936 0.596 0.335 1.192 0.67 1.787 1.005l147.214 80.3c25.321 13.815 41.053 40.308 41.053 69.148l-0.019 67.063-4.282 5.176c-0.41 0.465-40.662 49.431-55.873 115.731l-1.694 7.373-6.349 4.115c-8.955 5.79-14.317 15.472-14.317 25.917v66.001c0 8.657 3.668 16.719 10.37 22.77l6.144 5.548v103.703l-0.168 2.439c-0.056 0.447-5.548 45.224 25.991 81.175 26.922 30.683 73.058 46.266 137.086 46.266 63.786 0 109.773-15.453 136.769-45.912 31.502-35.579 26.345-81.194 26.307-81.566l-0.168-106.142 6.144-5.548c6.684-6.032 10.37-14.113 10.37-22.77v-66.001c0-13.275-9.030-25.321-21.988-29.324l-9.253-2.849-2.979-9.216c-10.985-34.127-26.624-65.648-46.471-93.687-4.878-6.889-9.626-12.995-13.703-17.669l-4.617-5.269v-68.869c0-30.013 16.682-57.009 43.529-70.414l157.64-78.811c1.005-0.503 1.992-1.024 2.979-1.545-1.992-1.508-4.040-2.904-6.051-4.357z" />
<glyph unicode="&#xe92e;" glyph-name="varnish" d="M372.528 318.528c-5.309 12.73-17.777 21.007-31.57 20.968-13.801-0.040-26.213-8.389-31.451-21.15l-44.221-109.655-13.015-31.316c-12.293-29.832-9.817-63.704 6.666-91.442 15.111-25.967 41.705-43.157 71.585-46.268 3.5-0.365 7.016-0.548 10.531-0.548 3.508 0 7.016 0.183 10.5 0.54 29.896 3.103 56.514 20.293 71.625 46.276 16.492 27.729 18.96 61.609 6.666 91.442zM393.868 103.392c-9.635-16.682-26.658-27.761-45.808-29.809-4.667-0.484-9.373-0.484-14.039 0-19.142 2.055-36.15 13.135-45.784 29.809-10.992 18.46-12.65 41.023-4.476 60.895l57.22 141.305 44.356-109.997 13.015-31.309c8.174-19.872 6.516-42.435-4.484-60.895zM102.314 380.177c-9.412 0-17.047-7.635-17.047-17.055v-17.055c0-9.412 7.635-17.047 17.047-17.047 9.42 0 17.055 7.635 17.055 17.047v17.055c0 9.42-7.635 17.055-17.055 17.055zM102.314 294.91c-9.412 0-17.047-7.635-17.047-17.055v-221.683c0-9.42 7.635-17.055 17.047-17.055 9.42 0 17.055 7.635 17.055 17.055v221.683c0 9.42-7.635 17.055-17.055 17.055zM927.844 406.16c-41.776 21.491-77.918 40.546-91.005 82.505l77.759 77.759c6.397 6.397 9.992 15.071 9.992 24.118s-3.595 17.722-9.992 24.118l-108.512 108.528c-7.952 7.952-19.317 11.46-30.372 9.389l-148.987 212.835c-5.786 8.262-14.92 13.547-24.967 14.428-10.047 0.873-19.96-2.73-27.094-9.865l-193.573-193.573c-10.73-10.785-13.047-27.364-5.698-40.681l25.055-45.11-45.102 25.071c-13.325 7.333-29.888 5.008-40.689-5.706l-48.871-48.879c-2.111-2.167-3.928-4.611-5.389-7.262-74.196-4.071-260.397-20.531-260.397-83.132v-68.212c0.556-12.285 6.881-23.579 17.055-30.483v-433.145c0.103-0.968 0.294-1.921 0.579-2.857l0.040-0.23c0.23-1.524 0.667-3.008 1.294-4.405 20.452-58.514 208.398-74.569 322.085-74.569 120.345 0 324.006 17.96 324.006 85.267v294.816l62.038 62.038c41.951-13.087 61.014-49.221 82.505-91.005 11.222-24.102 25.245-46.792 41.776-67.609 15.015-17.468 36.681-27.801 59.697-28.483 1.048-0.032 2.095-0.056 3.143-0.056 22.841 0.024 44.745 9.087 60.911 25.221l23.658 23.642c16.896 16.944 26.007 40.134 25.158 64.054-0.675 23.015-11.016 44.681-28.475 59.689-20.825 16.539-43.522 30.563-67.625 41.784zM890.496 590.559l-265.285-265.293-108.52 108.528 265.285 265.277zM44.165 474.571c-3.873 1.913-7.301 4.627-10.047 7.96l-0.016-0.008v26.682c6.73-3.301 13.658-6.174 20.745-8.619l0.746-0.254 0.056-0.024c60.276-21.833 166.836-34.872 285.404-34.872 33.896 0 67.776 1.238 100.917 3.468l41.229-28.864c-0.095-0.492-0.071-1-0.143-1.5-47.181-4.833-94.576-7.238-142.003-7.206-132.194 0-254.19 17.738-296.887 43.237zM349.624 533.553l47.022-32.912c-18.452-0.698-37.015-1.095-55.593-1.095-71.204-0.619-142.329 5.087-212.533 17.055 70.204 11.96 141.329 17.666 212.533 17.047 2.913-0.048 5.73-0.071 8.563-0.095zM338.775 665.866l97.283-54.046c6.659-3.706 14.96-2.54 20.349 2.841 5.381 5.389 6.547 13.698 2.841 20.349l-54.038 97.283 74.164 74.164 108.624-130.353c3.849-4.841 10.023-7.214 16.119-6.206 6.103 1.008 11.182 5.238 13.269 11.055 2.095 5.817 0.873 12.317-3.19 16.976l-110.608 132.742 95.195 95.195 148.948-212.795-245.048-245.048-212.787 148.956zM260.563 599.622c2.468-4.182 5.801-7.793 9.777-10.587l31.15-21.793c-99.092-2.476-186.415-14.206-240.421-32.515-10.063 3.008-19.293 8.301-26.967 15.476v0.087c5.198 13.587 76.672 41.142 226.461 49.332zM341.053-29.096c-180.518 0-284.491 33.38-289.896 51.356v411.543c58.808-22.547 167.288-36.57 289.896-36.57 51.967-0.071 103.886 2.738 155.535 8.428l104.505-104.505c6.381-6.42 15.063-10.016 24.118-9.992 1.929 0.024 3.849 0.214 5.746 0.563v-269.428c-5.238-17.968-109.219-51.395-289.904-51.395zM974.668 264.744l-23.65-23.65c-10.246-10.182-24.245-15.674-38.681-15.182-13.531 0.365-26.285 6.412-35.134 16.658-14.738 18.809-27.245 39.261-37.277 60.95-19.745 38.396-41.705 81.093-86.227 102.005l56.53 56.538c20.912-44.53 63.601-66.482 102.005-86.235 21.69-10.031 42.142-22.539 60.95-37.277 10.246-8.849 16.293-21.595 16.666-35.126 0.508-14.444-4.984-28.444-15.182-38.681zM589.037 457.912l-12.055-12.055c-4.42-4.286-6.182-10.619-4.619-16.571s6.206-10.603 12.158-12.166 12.285 0.206 16.571 4.619l12.063 12.055c6.516 6.69 6.444 17.365-0.151 23.967-6.603 6.595-17.285 6.666-23.967 0.151zM769.904 638.78l-132.631-132.639c-4.42-4.286-6.182-10.619-4.619-16.571s6.214-10.603 12.166-12.166c5.952-1.563 12.285 0.206 16.571 4.619l132.631 132.647c4.413 4.286 6.182 10.619 4.619 16.571s-6.214 10.603-12.166 12.158c-5.952 1.563-12.285-0.198-16.571-4.619z" />
<glyph unicode="&#xe92f;" glyph-name="wall" d="M409.467 948.48c-63.212-5.632-106.598-23.777-140.186-58.624-19.405-20.029-31.078-38.595-43.807-70.093-8.346-20.439-203.192-592.046-209.654-614.994-6.052-21.279-7.506-66.97-2.714-91.791 12.933-69.468 60.293-124.334 129.966-150.62 45.691-17.111 113.49-21.074 164.178-9.595 59.034 13.353 104.305 50.483 121.416 99.297 7.721 22.528 8.97 53.402 2.918 75.52-6.052 21.903-14.807 37.765-30.044 54.446-47.36 51.732-138.936 76.145-209.869 55.91-44.646-12.728-72.806-44.227-74.895-83.241-3.543-65.505 51.108-101.181 155.412-101.181 20.654 0 21.699 0.205 28.16 6.052 5.837 5.212 6.881 7.506 6.676 14.807-0.205 6.461-1.669 10.22-5.632 14.182-5.212 5.007-7.096 5.427-35.256 7.301-72.387 4.383-103.68 18.565-107.223 48.609-2.499 19.61 7.721 35.052 29.829 46.52 39.639 20.029 114.944 11.479 158.546-18.145 54.866-37.345 61.542-101.386 15.442-144.988-30.669-28.785-72.182-40.888-132.465-38.39-90.122 3.543-151.869 46.52-172.728 119.747-3.758 13.138-4.588 21.484-4.588 43.387 0 45.896 9.595 70.513 38.38 99.092 25.866 25.866 48.189 37.755 93.256 49.439 21.699 5.632 24.412 5.837 71.557 5.837 52.992 0 66.335-1.669 101.806-11.684 37.55-10.639 66.13-28.16 86.579-52.992 12.728-15.432 29.624-46.725 44.851-83.446 17.111-41.093 30.454-68.219 42.762-86.784 29-43.807 68.424-74.895 120.166-94.71 50.063-18.985 115.159-29.624 187.341-30.454 31.498-0.42 37.13 1.044 42.138 10.435 1.249 2.089 31.918 170.65 68.219 374.671 65.905 369.265 66.109 370.729 62.566 377.61-2.089 3.758-6.257 7.926-9.175 9.39-3.543 1.669-21.074 3.338-46.316 4.168-90.327 3.543-153.743 18.565-201.728 47.565-21.074 12.513-43.182 32.758-70.093 64.041-57.784 66.97-86.784 88.453-139.561 103.055-34.632 9.605-95.345 14.397-136.233 10.65zM498.125 903.629c41.093-5.632 70.298-16.691 95.959-36.086 15.227-11.479 23.368-20.029 59.034-61.338 48.609-55.91 84.49-81.152 143.944-100.762 41.728-13.773 84.49-20.859 150.2-25.242 13.138-0.84 20.234-2.089 20.234-3.543 0.205-3.543-121.62-686.551-122.46-687.596-1.249-1.669-70.513 3.758-93.88 7.301-83.651 12.308-140.605 41.093-175.862 88.453-14.387 19.61-24.412 38.799-44.851 86.569-20.029 46.52-27.955 62.587-41.298 82.401-44.227 65.71-119.122 96.799-234.066 96.799-31.498 0.205-46.316-0.84-60.498-3.543-26.706-5.212-61.962-16.691-80.732-26.286-8.97-4.383-16.271-7.721-16.271-7.301 0 2.499 160.215 472.095 166.062 486.482 11.479 29 21.074 44.022 39.219 61.962 24.412 24.197 53.617 37.13 95.549 42.557 21.699 2.918 76.36 2.509 99.717-0.829z" />
<glyph unicode="&#xe930;" glyph-name="wall-calendars-flipping-pages" d="M879.926 840.977c-77.106 122.877-277.056 170.749-374.553 45.544-2.402-3.096-3.956-6.342-4.883-9.623l-209.813 31.603 4.957-79.645c5.338 3.812 12.111 5.641 19.064 4.503l633.984-99.502v-722.357c0-8.568-4.199-16.106-10.608-20.813l80.684-26.256v834.443l-136.488 20.551c2.613 6.323 2.51 13.838-2.344 21.552zM558.922 868.113c76.428 70.716 205.381 40.721 266.937-40.206l-266.937 40.206zM263.634 722.974c-1.932-11.772 6.048-22.86 17.81-24.798l519.858-85.136v-591.99c0-11.922 9.681-21.587 21.587-21.587 11.926 0 21.587 9.665 21.587 21.587v628.669l-556.060 91.065c-11.763 2.021-22.86-6.048-24.782-17.81zM896.873 21.875c0.54-0.035 0.998-0.323 1.519-0.323 10 0 18.063 6.933 20.49 16.176 0.47 1.772 1.097 3.508 1.097 5.411v663.208l-556.060 91.043c-8.171 1.401-15.818-2.245-20.5-8.427-2.060-2.731-3.71-5.785-4.282-9.377-0.134-0.867 0.134-1.663 0.083-2.52-0.467-10.778 6.822-20.5 17.724-22.281l519.861-85.123v-626.52c0-11.385 8.887-20.458 20.068-21.267zM564.468-53.376c88.862 92.524 193.439 568.635 197.843 588.856l4.586 21.037-572.082 126.705 5.373-31.623c24.209-142.625-179.105-465.139-181.146-468.362l-13.797-21.757 549.053-225.484 10.17 10.627zM68.97 181.974c43.699 72.299 176.291 303.408 176.221 445.867l470.287-104.158c-31.776-140.93-110.682-450.063-173.051-536.11l-473.457 194.402z" />
<glyph unicode="&#xe931;" glyph-name="wallpaper-1" d="M746.668 959.996h-639.996c-3.414-0.298-6.934-0.17-10.41-0.49-55.384-6.746-96.839-54.056-96.255-109.845v-657.66c0-47.128 38.206-85.333 85.333-85.333s85.333 38.204 85.333 85.333v21.334h64v-138.665c0.058-52.994 43.006-95.941 95.999-95.999 52.994 0.058 95.941 43.006 95.999 95.999v32h64v42.666h-85.333c-11.782 0-21.334-9.552-21.334-21.334v-53.334c0-29.456-23.878-53.334-53.334-53.334s-53.334 23.878-53.334 53.334v159.999c0 11.782-9.552 21.334-21.334 21.334h-106.663c-11.782 0-21.334-9.552-21.334-21.334v-42.666c0-23.564-19.102-42.666-42.666-42.666s-42.666 19.102-42.666 42.666v657.66c-0.738 33.842 24.054 62.84 57.6 67.37 2.134 0.298 4.266 0.298 6.4 0.298h0.96c15.59-0.178 30.566-6.096 42.070-16.618 13.344-12.14 20.956-29.34 20.97-47.382 0-11.782 9.552-21.334 21.334-21.334h639.996c11.782 0 21.334 9.552 21.334 21.334-0.074 58.884-47.788 106.597-106.669 106.667zM211.205 874.665c-3.176 15.464-9.732 30.034-19.2 42.666h554.663c27.114-0.034 51.278-17.116 60.352-42.666h-595.815zM832.001 746.665h-426.664c-35.346 0-64-28.654-64-64v-127.999c0-35.346 28.654-64 64-64h426.664c35.346 0 64 28.654 64 64v127.999c0 35.346-28.654 64-64 64zM853.335 554.666c0-11.782-9.552-21.334-21.334-21.334h-426.664c-11.782 0-21.334 9.552-21.334 21.334v127.999c0 11.782 9.552 21.334 21.334 21.334h426.664c11.782 0 21.334-9.552 21.334-21.334v-127.999zM362.67 639.998v42.666h-42.666c-11.782 0-21.334-9.552-21.334-21.334v-85.333c0-11.782 9.552-21.334 21.334-21.334h42.666v42.666h-21.332v42.666h21.332zM917.335 682.666h-42.666v-42.666h21.334v-42.666h-21.334v-42.666h42.666c11.782 0 21.334 9.552 21.334 21.334v85.333c-0.002 11.778-9.552 21.33-21.334 21.33zM960 639.998h-85.333v-42.666h85.333c11.782 0 21.334-9.552 21.334-21.334v-106.665c0-11.782-9.552-21.334-21.334-21.334h-255.999c-58.882-0.070-106.595-47.786-106.665-106.665v-85.333h42.666v85.333c0 35.346 28.654 64 64 64h255.999c35.346 0 64 28.654 64 64v106.665c0 35.348-28.654 64-64 64zM682.668 277.334h-127.999c-11.782 0-21.334-9.552-21.334-21.334v-234.665c0-47.128 38.204-85.333 85.333-85.333s85.333 38.204 85.333 85.333v234.665c0 11.782-9.552 21.334-21.334 21.334zM661.336 21.335c0-23.564-19.102-42.666-42.666-42.666s-42.666 19.102-42.666 42.666v213.333h85.333v-213.333zM725.336 853.331h42.666v-64h-42.666v64zM384.004 447.999h42.666v-149.333h-42.666v149.333zM384.004 256h42.666v-42.666h-42.666v42.666zM149.339 703.998h42.666v-277.332h-42.666v277.332zM149.339 383.999h42.666v-42.666h-42.666v42.666zM768.001 618.666h42.666v-42.666h-42.666v42.666zM682.668 618.666h42.666v-42.666h-42.666v42.666zM554.669 64.001h127.999v-42.666h-127.999v42.666z" />
<glyph unicode="&#xe932;" glyph-name="wallpaper-2" d="M657.052 600.57c-42.17 8.45-83.886 31.632-117.468 65.274-33.584 33.642-56.724 75.434-65.156 117.676-1.058 5.294-1.874 10.562-2.464 15.79l-447.106-447.902c-41.508-41.58-29.908-118.342 26.404-174.758 33.584-33.642 74.384-51.352 110.66-51.352 24.552 0 47.034 8.118 63.788 24.902l447.146 447.94c-5.264 0.59-10.54 1.376-15.804 2.43zM442.052-3.198c5.624-5.636 13.256-8.802 21.212-8.802s15.588 3.166 21.212 8.802l80.268 80.412h-202.96l80.268-80.412zM841.11 745.414c-0.030-31.194-8.484-60.896-25.626-85.944h111.418l-85.792 85.944zM1015.224 570.992l-28.326 28.376h-227.97l-70.31-70.434h327.002c11.296 11.764 11.178 30.464-0.396 42.058zM558.31 398.394h327.046l70.31 70.436h-327.046zM428.002 267.854h327.046l70.312 70.438h-327.046zM299.742 139.368l2.046-2.052h322.954l70.31 70.436h-327.046zM582.008 708.342c25.3-25.346 56.128-42.69 86.808-48.836 8.072-1.618 15.998-2.412 23.676-2.412 25.224 0 47.776 8.58 63.962 24.796 41.506 41.582 29.908 118.342-26.404 174.756-56.314 56.414-132.942 68.032-174.446 26.452-21.116-21.154-29.26-53.154-22.344-87.794 6.134-30.732 23.448-61.618 48.748-86.962zM612.204 826.472c0.676 0.672 3.382 1.39 7.188 1.39 12.114 0 33.552-7.302 54.094-27.88 29.754-29.808 29.858-57.966 26.402-61.426-0.334-0.252-2.688-1.324-7.396-1.324-2.468 0-5.156 0.288-7.99 0.854-15.138 3.034-31.878 12.846-45.926 26.918-14.054 14.078-23.846 30.846-26.874 46.012-1.928 9.664-0.062 14.722 0.502 15.456z" />
<glyph unicode="&#xe933;" glyph-name="wallpaper-3" d="M639.119 247.789c-12.169 0-22.034 9.865-22.034 22.034v0 63.897c0 0.049 0 0.106 0 0.164 0 27.078 18.72 49.784 43.924 55.882l0.393 0.080 230.808 54.996c6.041 1.465 10.458 6.827 10.459 13.22v0 77.72c-0.008 7.528-6.105 13.629-13.63 13.646h-41.704c-12.169 0-22.034 9.865-22.034 22.034s9.865 22.034 22.034 22.034v0h41.702c31.854-0.042 57.665-25.858 57.698-57.71v-77.678c0-0.046 0-0.101 0-0.156 0-27.076-18.712-49.781-43.909-55.89l-0.393-0.080-230.823-54.996c-6.041-1.465-10.458-6.827-10.459-13.22v0-63.897c0-0.013 0-0.029 0-0.044 0-12.169-9.865-22.034-22.034-22.034 0 0 0 0 0 0v0zM811.67 470.856h-345.089c-31.857 0.042-57.671 25.856-57.713 57.709v85.758c0.042 31.854 25.858 57.665 57.71 57.698h345.092c31.853-0.033 57.665-25.846 57.698-57.695v-85.728c-0.017-31.868-25.834-57.701-57.694-57.742h-0.004zM466.582 627.955c-7.528-0.008-13.629-6.105-13.646-13.63v-85.727c0.008-7.533 6.113-13.638 13.645-13.646h345.090c7.527 0.017 13.623 6.118 13.631 13.645v85.726c-0.008 7.525-6.106 13.623-13.631 13.631h-0.001zM639.119 11.648c-40.145 0.050-72.675 32.58-72.725 72.72v164.022c0.033 23.997 19.482 43.44 43.477 43.465h58.479c23.995-0.025 43.44-19.47 43.465-43.462v-164.019c-0.050-40.135-32.564-72.658-72.69-72.725h-0.006zM610.46 247.789v-163.415c-0.009-0.273-0.015-0.595-0.015-0.917 0-15.828 12.831-28.658 28.658-28.658s28.658 12.831 28.658 28.658c0 0.323-0.005 0.644-0.016 0.964l0.001-0.047v163.415zM214.357 11.648c-39.22 0-72.916 8.813-97.447 25.559-25.559 17.421-39.66 42.216-39.66 69.817 0 12.169 9.865 22.034 22.034 22.034s22.034-9.865 22.034-22.034v0c0-16.158 11.090-27.057 20.403-33.403 16.936-11.546 42.73-17.906 72.622-17.906 40.307 0 65.263 15.423 65.263 29.716v118.849c0 12.169 9.865 22.034 22.034 22.034s22.034-9.865 22.034-22.034v0-118.849c0-21.754-12.544-41.937-34.416-55.363-19.595-12.045-45.507-18.42-74.899-18.42zM301.653 182.246c-12.169 0-22.034 9.865-22.034 22.034v0 533.916c0 8.622-16.158 21.137-41.629 21.137-18.347 0-31.302-6.566-37.325-12.691-4.003-4.082-9.576-6.613-15.739-6.613-12.17 0-22.037 9.866-22.037 22.037 0 6.007 2.403 11.452 6.301 15.427l-0.004-0.004c16.158 16.481 41.217 25.926 68.803 25.926 48.048 0 85.696-28.644 85.696-65.204v-533.931c0-12.169-9.865-22.034-22.034-22.034v0zM99.298 84.991c-12.169 0-22.034 9.865-22.034 22.034v0 652.721c0 12.169 9.865 22.034 22.034 22.034s22.034-9.865 22.034-22.034v0-652.721c0-12.169-9.865-22.034-22.034-22.034v0zM514.982 184.332h-213.328c-12.169 0-22.034 9.865-22.034 22.034v0 471.179c-18.156-8.652-40.468-13.22-65.263-13.22-39.22 0-72.916 8.813-97.447 25.544-25.559 17.436-39.66 42.231-39.66 69.832 0 35.386 19.83 67.085 55.818 89.25 34.123 21.020 80.319 32.125 133.582 32.125h580.656c12.169 0 22.034-9.865 22.034-22.034v0-141.646c0-12.169-9.865-22.034-22.034-22.034s-22.034 9.865-22.034 22.034v0 119.657h-558.594c-44.464 0-83.727-9.078-110.476-25.574-15.908-9.798-34.872-26.719-34.872-51.735 0-16.158 11.090-27.072 20.403-33.403 16.936-11.546 42.73-17.906 72.622-17.906 40.307 0 65.263 15.423 65.263 29.716 0 12.169 9.865 22.034 22.034 22.034s22.034-9.865 22.034-22.034v0-509.709h191.295c12.169 0 22.034-9.865 22.034-22.034s-9.865-22.034-22.034-22.034v0zM847.335 184.332h-84.080c-12.169 0-22.034 9.865-22.034 22.034s9.865 22.034 22.034 22.034v0h62.046v107.597c0 12.169 9.865 22.034 22.034 22.034s22.034-9.865 22.034-22.034v0-129.63c0-12.169-9.865-22.034-22.034-22.034v0z" />
<glyph unicode="&#xe934;" glyph-name="web-design" d="M894.349 826.835h-12.15c23.16 37.705 14.608 88.326-22.562 115.904-40.049 29.711-96.962 20.148-124.912-21.62l-63.091-94.286h-541.983c-44.549 0-80.792-36.243-80.792-80.792v-516.538c0-44.549 36.243-80.792 80.792-80.792h313.822l-23.712-99.592h-51.177c-33.353 0-60.489-27.133-60.489-60.487v-12.63h-63.089c-11.046 0-20-8.956-20-20s8.954-20 20-20h533.988c11.046 0 20 8.956 20 20s-8.954 20-20 20h-63.089v12.63c0 33.353-27.135 60.487-60.489 60.487h-51.177l-23.712 99.592h313.822c44.549 0 80.792 36.243 80.792 80.792v516.54c0 44.549-36.243 80.792-80.794 80.792zM607.79 475.243c-31.269-21.89-89.85 7.864-145.793-21.988-13.65 70.909-5.044 137.597 66.005 152.317 9.182 1.914 19.068 2.78 27.483 2.612 24.048-17.842 48.371-35.887 72.351-53.681 10.498-30.535 6.558-60.639-20.046-79.26zM627.946 689.615l56.613-42.003-43.537-53.081c-17.924 13.298-33.331 24.73-51.255 38.029 3.722 5.562 34.777 51.973 38.179 57.055zM767.971 898.873c15.148 22.642 46.041 27.909 67.833 11.74 21.8-16.172 25.703-47.263 8.43-68.325-30.649-37.365-103.516-126.206-134.281-163.715l-59.739 44.323zM675.905-11.369v-12.63h-327.81v12.63c0 11.296 9.192 20.488 20.49 20.488h286.83c11.298 0 20.49-9.192 20.49-20.488zM563.121 49.118h-102.242l23.712 99.592h54.819zM935.144 229.502c0-22.494-18.3-40.793-40.793-40.793-31.747 0-729.002 0-764.697 0-22.494 0-40.793 18.3-40.793 40.793v93.658h57.151c11.046 0 20 8.956 20 20s-8.954 20-20 20h-57.155v382.883c0 22.494 18.3 40.793 40.793 40.793h515.22c-19.16-28.633-75.057-112.168-92.762-138.625-39.193-0.354-78.322-14.008-103.938-43.911-34.857-40.689-40.981-104.624-18.202-190.026 3.894-14.604 22.116-19.836 33.141-9.304 51.713 49.413 116.12-4.486 173.797 42.197 35.207 28.499 43.539 73.807 30.263 116.174 17.946 21.88 165.325 201.564 183.312 223.496h43.865c22.494 0 40.793-18.3 40.793-40.793v-382.881h-629.136c-11.046 0-20-8.956-20-20s8.954-20 20-20h629.14zM222.146 362.774c-9.628-1.968-16.080-10.29-16.080-19.622 0-12.51 11.438-22.090 23.9-19.6 11.074 2.248 17.82 12.92 15.7 23.52-2.226 10.94-12.838 17.852-23.52 15.702z" />
<glyph unicode="&#xe935;" glyph-name="right-down" d="M699.733 456.533l-221.867-221.867-46.933 42.667 179.2 179.2-179.2 174.933 46.933 42.667z" />
<glyph unicode="&#xe936;" glyph-name="left-down" d="M324.267 439.467l221.867 221.867 46.933-42.667-179.2-179.2 179.2-174.933-46.933-42.667z" />
<glyph unicode="&#xe937;" glyph-name="advantages" d="M664.137 465.554c-7.314 0-13.166 4.389-14.629 10.24l-65.829 193.097c-10.24 32.183 5.851 65.829 38.034 77.531 16.091 5.851 32.183 4.389 46.811-2.926s24.869-19.017 30.72-35.109l55.589-162.377c2.926-8.777-1.463-17.554-10.24-20.48s-17.554 1.463-20.48 10.24l-55.589 162.377c-2.926 7.314-7.314 13.166-14.629 16.091s-14.629 4.389-21.943 1.463c-14.629-4.389-23.406-21.943-17.554-36.571l65.829-193.097c2.926-8.777-1.463-17.554-10.24-20.48-2.926 0-4.389 0-5.851 0zM983.040-11.337c-5.851 0-11.703 4.389-14.629 10.24l-49.737 118.491c-11.703 35.109-16.091 70.217-14.629 105.326 1.463 30.72-1.463 61.44-11.703 92.16l-57.051 166.766c-2.926 8.777 1.463 17.554 10.24 20.48s17.554-1.463 20.48-10.24l57.051-166.766c11.703-33.646 16.091-68.754 13.166-103.863-1.463-30.72 1.463-61.44 11.703-92.16l48.274-117.029c2.926-8.777 0-17.554-8.777-20.48 0-2.926-1.463-2.926-4.389-2.926zM737.28 525.531c-7.314 0-13.166 4.389-14.629 10.24l-39.497 115.566c-10.24 32.183 5.851 65.829 38.034 77.531 16.091 5.851 32.183 4.389 46.811-2.926s24.869-19.017 30.72-35.109l42.423-125.806c2.926-8.777-1.463-17.554-10.24-20.48s-17.554 1.463-20.48 10.24l-42.423 125.806c-2.926 7.314-7.314 13.166-14.629 16.091s-14.629 4.389-21.943 1.463c-14.629-4.389-23.406-21.943-17.554-36.571l39.497-115.566c2.926-8.777-1.463-17.554-10.24-20.48-1.463 0-2.926 0-5.851 0zM595.383 389.486c-7.314 0-13.166 4.389-14.629 10.24l-90.697 267.703c-5.851 16.091-4.389 32.183 2.926 46.811s19.017 24.869 35.109 30.72c32.183 10.24 65.829-5.851 77.531-38.034l74.606-220.891c2.926-8.777-1.463-17.554-10.24-20.48s-17.554 1.463-20.48 10.24l-74.606 220.891c-4.389 14.629-21.943 23.406-36.571 17.554-7.314-2.926-13.166-7.314-16.091-14.629s-4.389-14.629-1.463-21.943l90.697-267.703c2.926-8.777-1.463-17.554-10.24-20.48-2.926 0-4.389 0-5.851 0zM381.806 240.274c-8.777 0-16.091 7.314-16.091 16.091l-4.389 169.691c0 4.389 1.463 8.777 4.389 11.703s7.314 4.389 11.703 4.389l14.629-1.463c52.663-4.389 93.623-46.811 96.549-99.474l1.463-39.497 29.257-5.851-106.789 314.514c-5.851 16.091-4.389 32.183 2.926 46.811s19.017 24.869 35.109 30.72c32.183 10.24 65.829-5.851 77.531-38.034l81.92-239.909c2.926-8.777-1.463-17.554-10.24-20.48s-17.554 1.463-20.48 10.24l-81.92 239.909c-4.389 14.629-21.943 23.406-36.571 17.554-7.314-2.926-13.166-7.314-16.091-14.629s-4.389-14.629-1.463-21.943l115.566-340.846c1.463-5.851 0-11.703-2.926-16.091s-10.24-5.851-14.629-4.389l-70.217 14.629c-7.314 1.463-11.703 7.314-13.166 14.629l-2.926 52.663c-1.463 35.109-29.257 62.903-62.903 68.754l5.851-152.137c0-8.777-7.314-16.091-16.091-17.554 0 0 0 0 0 0zM687.543-50.834c-7.314 0-13.166 4.389-14.629 10.24l-35.109 103.863c-2.926 8.777-10.24 16.091-19.017 20.48l-89.234 33.646c-13.166 4.389-23.406 11.703-33.646 21.943l-81.92 65.829c-7.314 5.851-7.314 16.091-2.926 21.943 5.851 7.314 16.091 7.314 21.943 2.926l83.383-67.291c7.314-7.314 16.091-11.703 23.406-14.629l89.234-33.646c19.017-7.314 32.183-21.943 38.034-39.497l35.109-103.863c2.926-8.777-1.463-17.554-10.24-20.48 0-1.463-2.926-1.463-4.389-1.463zM294.034 462.629c0 0 0 0 0 0-10.24 0-16.091 8.777-16.091 17.554l27.794 380.343c1.463 17.554 8.777 32.183 21.943 43.886s29.257 16.091 46.811 14.629c17.554-1.463 32.183-8.777 43.886-21.943s16.091-29.257 14.629-46.811c0-8.777-8.777-16.091-17.554-14.629-8.777 0-16.091 8.777-14.629 17.554 0 8.777-1.463 16.091-7.314 23.406s-13.166 10.24-21.943 11.703c-8.777 0-16.091-1.463-23.406-7.314-5.851-5.851-10.24-13.166-10.24-21.943l-27.794-380.343c0-8.777-7.314-16.091-16.091-16.091zM500.297 663.040c-1.463 0-1.463 0 0 0-10.24 0-16.091 8.777-16.091 17.554l11.703 166.766c2.926 35.109 33.646 61.44 68.754 58.514s61.44-33.646 58.514-68.754l-10.24-131.657c0-8.777-8.777-16.091-17.554-14.629-8.777 0-16.091 8.777-14.629 17.554l10.24 131.657c1.463 17.554-11.703 32.183-29.257 33.646s-32.183-11.703-33.646-29.257l-11.703-166.766c-1.463-8.777-8.777-14.629-16.091-14.629zM690.469 679.131c-1.463 0-1.463 0 0 0-10.24 1.463-16.091 8.777-16.091 17.554l7.314 84.846c0 8.777-1.463 16.091-7.314 21.943s-13.166 10.24-21.943 10.24c-8.777 0-16.091-1.463-23.406-7.314s-10.24-13.166-10.24-21.943l-7.314-80.457c-1.463-8.777-8.777-14.629-17.554-14.629s-16.091 8.777-14.629 17.554l7.314 80.457c1.463 16.091 8.777 32.183 21.943 43.886s29.257 16.091 46.811 14.629c17.554-1.463 32.183-8.777 43.886-21.943s16.091-29.257 14.629-46.811l-7.314-84.846c-1.463-7.314-8.777-13.166-16.091-13.166zM392.046 493.349c0 0-1.463 0 0 0-10.24 0-16.091 8.777-16.091 17.554l27.794 375.954c1.463 17.554 8.777 32.183 21.943 43.886s29.257 16.091 46.811 14.629c17.554-1.463 32.183-8.777 43.886-21.943s16.091-29.257 14.629-46.811l-14.629-198.949c0-8.777-8.777-16.091-17.554-14.629-8.777 0-16.091 8.777-14.629 17.554l14.629 198.949c0 8.777-1.463 16.091-7.314 23.406-5.851 5.851-13.166 10.24-21.943 10.24s-16.091-1.463-23.406-7.314c-5.851-5.851-10.24-13.166-10.24-21.943l-27.794-375.954c-1.463-8.777-7.314-14.629-16.091-14.629zM298.423 12.069c-1.463 0-1.463 0 0 0-10.24 0-16.091 8.777-16.091 17.554l10.24 131.657c0 8.777 8.777 16.091 17.554 14.629 8.777 0 16.091-8.777 14.629-17.554l-10.24-131.657c-1.463-8.777-8.777-14.629-16.091-14.629zM313.051 208.091c-1.463 0-1.463 0 0 0-10.24 0-16.091 8.777-16.091 17.554v8.777c1.463 10.24-2.926 20.48-10.24 29.257l-73.143 68.754c-10.24 10.24-19.017 21.943-23.406 35.109l-55.589 124.343c-4.389 10.24-7.314 20.48-8.777 30.72l-17.554 147.749c-1.463 8.777 4.389 16.091 13.166 17.554l8.777 1.463c21.943 4.389 45.349 0 64.366-13.166s32.183-33.646 36.571-57.051l16.091-89.234 52.663-54.126c13.166-1.463 26.331-2.926 38.034-5.851 8.777-1.463 14.629-10.24 13.166-19.017s-10.24-14.629-19.017-13.166c-13.166 2.926-26.331 4.389-40.96 5.851-4.389 0-7.314 1.463-10.24 4.389l-59.977 62.903c-2.926 2.926-4.389 5.851-4.389 8.777l-16.091 95.086c-2.926 14.629-10.24 26.331-21.943 35.109-10.24 7.314-23.406 10.24-35.109 8.777l16.091-133.12c1.463-7.314 2.926-14.629 5.851-21.943l54.126-124.343c4.389-8.777 10.24-17.554 16.091-23.406l73.143-68.754c14.629-14.629 21.943-33.646 20.48-54.126v-8.777c-1.463-8.777-8.777-16.091-16.091-16.091zM127.269 313.417c-4.389 0-8.777 1.463-11.703 4.389-5.851 5.851-5.851 16.091 0 23.406l5.851 5.851c5.851 5.851 16.091 5.851 23.406 0 5.851-5.851 5.851-16.091 0-23.406l-5.851-5.851c-4.389-2.926-8.777-4.389-11.703-4.389zM99.474 145.189c-30.72 0-54.126 7.314-65.829 26.331-17.554 29.257-2.926 71.68 45.349 128.731 5.851 7.314 16.091 7.314 21.943 1.463 7.314-5.851 7.314-16.091 1.463-21.943-42.423-51.2-49.737-80.457-42.423-92.16 17.554-27.794 140.434-13.166 361.326 103.863 7.314 4.389 17.554 1.463 21.943-7.314 4.389-7.314 1.463-17.554-7.314-21.943-119.954-61.44-254.537-117.029-336.457-117.029zM683.154 420.206c-4.389 0-10.24 2.926-13.166 7.314-5.851 7.314-2.926 17.554 2.926 21.943 203.337 144.823 270.629 248.686 254.537 276.48-8.777 14.629-57.051 20.48-160.914-14.629-8.777-2.926-17.554 1.463-20.48 10.24s1.463 17.554 10.24 20.48c109.714 36.571 175.543 38.034 198.949 1.463 40.96-67.291-108.251-209.189-261.851-320.366-2.926-2.926-7.314-2.926-10.24-2.926z" />
<glyph unicode="&#xe938;" glyph-name="arrow-small-down" d="M512 960.267c36.877 0 66.806-29.929 66.806-66.806v-729.52l242.372 242.372c26.188 26.188 68.409 26.188 94.597 0s26.188-68.409 0-94.597l-356.209-356.209c0 0-0.267-0.267-0.267-0.267s0 0 0 0-0.267-0.267-0.267-0.267c0 0 0 0 0 0s0 0-0.267-0.267c0 0 0 0-0.267 0 0 0 0 0 0 0-6.146-5.879-13.361-10.422-20.843-13.628 0 0 0 0 0 0s0 0 0 0c-6.948-2.939-14.697-4.543-22.714-4.81 0 0-0.267 0-0.267 0-1.336 0-2.939 0-4.276 0 0 0-0.267 0-0.267 0-8.017 0.267-15.499 1.871-22.714 4.81 0 0 0 0 0 0s0 0 0 0c-7.482 3.207-14.697 7.749-20.843 13.628 0 0 0 0 0 0s0 0 0 0 0 0-0.267 0.267c0 0 0 0 0 0s-0.267 0.267-0.267 0.267c0 0 0 0 0 0s-0.267 0.267-0.267 0.267c0 0 0 0 0 0l-357.278 356.209c-26.188 26.188-26.188 68.409 0 94.597s68.409 26.188 94.597 0l242.104-242.372v729.52c0 36.877 29.929 66.806 66.806 66.806z" />
<glyph unicode="&#xe939;" glyph-name="arrow-small-right" d="M-0.267 448c0 36.877 29.929 66.806 66.806 66.806h729.52l-242.372 242.372c-26.188 26.188-26.188 68.409 0 94.597s68.409 26.188 94.597 0l356.209-356.209c0 0 0.267-0.267 0.267-0.267s0 0 0 0 0.267-0.267 0.267-0.267c0 0 0 0 0 0s0 0 0.267-0.267c0 0 0 0 0-0.267 0 0 0 0 0 0 5.879-6.146 10.422-13.361 13.628-20.843 0 0 0 0 0 0s0 0 0 0c2.939-6.948 4.543-14.697 4.81-22.714 0 0 0-0.267 0-0.267 0-1.336 0-2.939 0-4.276 0 0 0-0.267 0-0.267-0.267-8.017-1.871-15.499-4.81-22.714 0 0 0 0 0 0s0 0 0 0c-3.207-7.482-7.749-14.697-13.628-20.843 0 0 0 0 0 0s0 0 0 0 0 0-0.267-0.267c0 0 0 0 0 0s-0.267-0.267-0.267-0.267c0 0 0 0 0 0s-0.267-0.267-0.267-0.267c0 0 0 0 0 0l-356.209-357.278c-26.188-26.188-68.409-26.188-94.597 0s-26.188 68.409 0 94.597l242.372 242.104h-729.52c-36.877 0-66.806 29.929-66.806 66.806z" />
<glyph unicode="&#xe93a;" glyph-name="arrow-small-left" d="M1024.267 448c0-36.877-29.929-66.806-66.806-66.806h-729.52l242.372-242.372c26.188-26.188 26.188-68.409 0-94.597s-68.409-26.188-94.597 0l-356.209 356.209c0 0-0.267 0.267-0.267 0.267s0 0 0 0-0.267 0.267-0.267 0.267c0 0 0 0 0 0s0 0-0.267 0.267c0 0 0 0 0 0.267 0 0 0 0 0 0-5.879 6.146-10.422 13.361-13.628 20.843 0 0 0 0 0 0s0 0 0 0c-2.939 6.948-4.543 14.697-4.81 22.714 0 0 0 0.267 0 0.267 0 1.336 0 2.939 0 4.276 0 0 0 0.267 0 0.267 0.267 8.017 1.871 15.499 4.81 22.714 0 0 0 0 0 0s0 0 0 0c3.207 7.482 7.749 14.697 13.628 20.843 0 0 0 0 0 0s0 0 0 0 0 0 0.267 0.267c0 0 0 0 0 0s0.267 0.267 0.267 0.267c0 0 0 0 0 0s0.267 0.267 0.267 0.267c0 0 0 0 0 0l356.209 357.278c26.188 26.188 68.409 26.188 94.597 0s26.188-68.409 0-94.597l-242.372-242.104h729.52c36.877 0 66.806-29.929 66.806-66.806z" />
<glyph unicode="&#xe93b;" glyph-name="left-arrow" d="M0 439.617c0-28.475 10.889-55.218 31.026-75.356l295.295-295.432c22.256-22.256 58.339-22.256 80.55 0 22.279 22.256 22.233 58.499 0 80.777l-240.874 240.783h801.418c31.482 0.023 56.585 25.832 56.585 57.337 0 0.068 0 0.569 0 0.638 0 31.482-25.103 57.474-56.585 57.474h-801.441l240.829 240.646c22.279 22.279 22.279 58.408 0 80.663-22.256 22.301-58.339 22.279-80.595-0.023l-295.181-295.455c-20.16-20.092-31.026-46.904-31.026-75.379 0-2.802 0-13.873 0-16.675z" />
<glyph unicode="&#xe93c;" glyph-name="up-arrow1" d="M503.617 960c-28.475 0-55.218-10.889-75.356-31.026l-295.432-295.295c-22.256-22.256-22.256-58.339 0-80.55 22.256-22.279 58.499-22.233 80.777 0l240.783 240.874v-801.418c0.023-31.482 25.832-56.585 57.337-56.585 0.068 0 0.569 0 0.638 0 31.482 0 57.474 25.103 57.474 56.585v801.441l240.646-240.829c22.279-22.279 58.408-22.279 80.663 0 22.301 22.256 22.279 58.339-0.023 80.595l-295.455 295.181c-20.092 20.16-46.904 31.026-75.379 31.026-2.802 0-13.873 0-16.675 0z" />
<glyph unicode="&#xe93d;" glyph-name="down-arrow" d="M520.383-64c28.475 0 55.218 10.889 75.356 31.026l295.432 295.295c22.256 22.256 22.256 58.339 0 80.55-22.256 22.279-58.499 22.233-80.777 0l-240.783-240.874v801.418c-0.023 31.482-25.832 56.585-57.337 56.585-0.068 0-0.569 0-0.638 0-31.482 0-57.474-25.103-57.474-56.585v-801.441l-240.646 240.829c-22.279 22.279-58.408 22.279-80.663 0-22.301-22.256-22.279-58.339 0.023-80.595l295.455-295.181c20.092-20.16 46.904-31.026 75.379-31.026 2.802 0 13.873 0 16.675 0z" />
<glyph unicode="&#xe93e;" glyph-name="down-arrow1" d="M24.387 716.181l487.604-487.622 487.639 487.622 24.37-24.37-512.009-511.991-511.991 511.991z" />
<glyph unicode="&#xe93f;" glyph-name="right-arrow1" d="M243.819-39.613l487.622 487.604-487.622 487.639 24.37 24.37 511.991-512.009-511.991-511.991z" />
<glyph unicode="&#xe940;" glyph-name="left-arrow1" d="M780.181 935.613l-487.622-487.604 487.622-487.639-24.37-24.37-511.991 512.009 511.991 511.991z" />
</font>
</defs>
</svg>
